<?xml version="1.0" encoding="UTF-8" standalone="no"?>
<!DOCTYPE svg PUBLIC "-//W3C//DTD SVG 1.1//EN"
 "http://www.w3.org/Graphics/SVG/1.1/DTD/svg11.dtd">
<!-- Generated by graphviz version 2.47.0 (20210316.0004)
 -->
<!-- Title: dependencies Pages: 1 -->
<svg width="588pt" height="284pt"
 viewBox="0.00 0.00 588.00 284.00" xmlns="http://www.w3.org/2000/svg" xmlns:xlink="http://www.w3.org/1999/xlink">
<g id="graph0" class="graph" transform="scale(1 1) rotate(0) translate(4 280)">
<title>dependencies</title>
<polygon fill="white" stroke="transparent" points="-4,4 -4,-280 584,-280 584,4 -4,4"/>
<text text-anchor="start" x="269.01" y="-42.4" font-family="Times-12" font-weight="bold" font-size="14.00">Legend</text>
<polygon fill="#ffffb3" stroke="transparent" points="56,-10 56,-30 76,-30 76,-10 56,-10"/>
<text text-anchor="start" x="79.63" y="-15.4" font-family="Times-12" font-size="14.00"> &#160;Declarations</text>
<polygon fill="#8dd3c7" stroke="transparent" points="169,-10 169,-30 189,-30 189,-10 169,-10"/>
<text text-anchor="start" x="192.73" y="-15.4" font-family="Times-12" font-size="14.00"> &#160;Module</text>
<polygon fill="#80b1d3" stroke="transparent" points="255,-10 255,-30 275,-30 275,-10 255,-10"/>
<text text-anchor="start" x="278.78" y="-15.4" font-family="Times-12" font-size="14.00"> &#160;Bootstrap</text>
<polygon fill="#fdb462" stroke="transparent" points="352,-10 352,-30 372,-30 372,-10 352,-10"/>
<text text-anchor="start" x="375.67" y="-15.4" font-family="Times-12" font-size="14.00"> &#160;Providers</text>
<polygon fill="#fb8072" stroke="transparent" points="448,-10 448,-30 468,-30 468,-10 448,-10"/>
<text text-anchor="start" x="471.73" y="-15.4" font-family="Times-12" font-size="14.00"> &#160;Exports</text>
<g id="clust1" class="cluster">
<title>cluster_ClientModule</title>
<polygon fill="none" stroke="black" stroke-dasharray="1,5" points="8,-70 8,-268 572,-268 572,-70 8,-70"/>
</g>
<g id="clust4" class="cluster">
<title>cluster_ClientModule_exports</title>
<polygon fill="none" stroke="black" points="194,-208 194,-260 439,-260 439,-208 194,-208"/>
</g>
<g id="clust3" class="cluster">
<title>cluster_ClientModule_imports</title>
<polygon fill="none" stroke="black" points="340,-78 340,-130 564,-130 564,-78 340,-78"/>
</g>
<g id="clust6" class="cluster">
<title>cluster_ClientModule_providers</title>
<polygon fill="none" stroke="black" points="16,-78 16,-130 332,-130 332,-78 16,-78"/>
</g>
<!-- ExcelModule -->
<g id="node1" class="node">
<title>ExcelModule</title>
<polygon fill="#8dd3c7" stroke="black" points="555.92,-122 552.92,-126 531.92,-126 528.92,-122 464.08,-122 464.08,-86 555.92,-86 555.92,-122"/>
<text text-anchor="middle" x="510" y="-99.8" font-family="Times,serif" font-size="14.00">ExcelModule</text>
</g>
<!-- ClientModule -->
<g id="node3" class="node">
<title>ClientModule</title>
<polygon fill="#8dd3c7" stroke="black" points="357.77,-187 354.77,-191 333.77,-191 330.77,-187 264.23,-187 264.23,-151 357.77,-151 357.77,-187"/>
<text text-anchor="middle" x="311" y="-164.8" font-family="Times,serif" font-size="14.00">ClientModule</text>
</g>
<!-- ExcelModule&#45;&gt;ClientModule -->
<g id="edge1" class="edge">
<title>ExcelModule&#45;&gt;ClientModule</title>
<path fill="none" stroke="black" d="M510,-122.11C510,-141.34 510,-169 510,-169 510,-169 367.91,-169 367.91,-169"/>
<polygon fill="black" stroke="black" points="367.91,-165.5 357.91,-169 367.91,-172.5 367.91,-165.5"/>
</g>
<!-- PrismaModule -->
<g id="node2" class="node">
<title>PrismaModule</title>
<polygon fill="#8dd3c7" stroke="black" points="446.43,-122 443.43,-126 422.43,-126 419.43,-122 347.57,-122 347.57,-86 446.43,-86 446.43,-122"/>
<text text-anchor="middle" x="397" y="-99.8" font-family="Times,serif" font-size="14.00">PrismaModule</text>
</g>
<!-- PrismaModule&#45;&gt;ClientModule -->
<g id="edge2" class="edge">
<title>PrismaModule&#45;&gt;ClientModule</title>
<path fill="none" stroke="black" d="M352.83,-122.11C352.83,-122.11 352.83,-140.99 352.83,-140.99"/>
<polygon fill="black" stroke="black" points="349.33,-140.99 352.83,-150.99 356.33,-140.99 349.33,-140.99"/>
</g>
<!-- ClientRepository  -->
<g id="node4" class="node">
<title>ClientRepository </title>
<polygon fill="#fb8072" stroke="black" points="430.66,-252 315.34,-252 315.34,-216 430.66,-216 430.66,-252"/>
<text text-anchor="middle" x="373" y="-229.8" font-family="Times,serif" font-size="14.00">ClientRepository </text>
</g>
<!-- ClientModule&#45;&gt;ClientRepository  -->
<g id="edge3" class="edge">
<title>ClientModule&#45;&gt;ClientRepository </title>
<path fill="none" stroke="black" stroke-dasharray="5,2" d="M336.65,-187.11C336.65,-187.11 336.65,-205.99 336.65,-205.99"/>
<polygon fill="black" stroke="black" points="333.15,-205.99 336.65,-215.99 340.15,-205.99 333.15,-205.99"/>
</g>
<!-- ClientService  -->
<g id="node5" class="node">
<title>ClientService </title>
<polygon fill="#fb8072" stroke="black" points="297.7,-252 202.3,-252 202.3,-216 297.7,-216 297.7,-252"/>
<text text-anchor="middle" x="250" y="-229.8" font-family="Times,serif" font-size="14.00">ClientService </text>
</g>
<!-- ClientModule&#45;&gt;ClientService  -->
<g id="edge4" class="edge">
<title>ClientModule&#45;&gt;ClientService </title>
<path fill="none" stroke="black" stroke-dasharray="5,2" d="M280.98,-187.11C280.98,-187.11 280.98,-205.99 280.98,-205.99"/>
<polygon fill="black" stroke="black" points="277.48,-205.99 280.98,-215.99 284.48,-205.99 277.48,-205.99"/>
</g>
<!-- ClientRepository -->
<g id="node6" class="node">
<title>ClientRepository</title>
<ellipse fill="#fdb462" stroke="black" cx="247" cy="-104" rx="77.04" ry="18"/>
<text text-anchor="middle" x="247" y="-99.8" font-family="Times,serif" font-size="14.00">ClientRepository</text>
</g>
<!-- ClientRepository&#45;&gt;ClientModule -->
<g id="edge5" class="edge">
<title>ClientRepository&#45;&gt;ClientModule</title>
<path fill="none" stroke="black" d="M294.07,-118.43C294.07,-118.43 294.07,-140.89 294.07,-140.89"/>
<polygon fill="black" stroke="black" points="290.57,-140.89 294.07,-150.89 297.57,-140.89 290.57,-140.89"/>
</g>
<!-- ClientService -->
<g id="node7" class="node">
<title>ClientService</title>
<ellipse fill="#fdb462" stroke="black" cx="88" cy="-104" rx="63.7" ry="18"/>
<text text-anchor="middle" x="88" y="-99.8" font-family="Times,serif" font-size="14.00">ClientService</text>
</g>
<!-- ClientService&#45;&gt;ClientModule -->
<g id="edge6" class="edge">
<title>ClientService&#45;&gt;ClientModule</title>
<path fill="none" stroke="black" d="M88,-122.11C88,-141.34 88,-169 88,-169 88,-169 253.98,-169 253.98,-169"/>
<polygon fill="black" stroke="black" points="253.98,-172.5 263.98,-169 253.98,-165.5 253.98,-172.5"/>
</g>
</g>
</svg>
