<?xml version="1.0" encoding="UTF-8" standalone="no"?>
<!DOCTYPE svg PUBLIC "-//W3C//DTD SVG 1.1//EN"
 "http://www.w3.org/Graphics/SVG/1.1/DTD/svg11.dtd">
<!-- Generated by graphviz version 2.47.0 (20210316.0004)
 -->
<!-- Title: dependencies Pages: 1 -->
<svg width="504pt" height="211pt"
 viewBox="0.00 0.00 504.00 211.00" xmlns="http://www.w3.org/2000/svg" xmlns:xlink="http://www.w3.org/1999/xlink">
<g id="graph0" class="graph" transform="scale(1 1) rotate(0) translate(4 207)">
<title>dependencies</title>
<polygon fill="white" stroke="transparent" points="-4,4 -4,-207 500,-207 500,4 -4,4"/>
<text text-anchor="start" x="227.01" y="-42.4" font-family="Times-12" font-weight="bold" font-size="14.00">Legend</text>
<polygon fill="#ffffb3" stroke="transparent" points="14,-10 14,-30 34,-30 34,-10 14,-10"/>
<text text-anchor="start" x="37.63" y="-15.4" font-family="Times-12" font-size="14.00"> &#160;Declarations</text>
<polygon fill="#8dd3c7" stroke="transparent" points="127,-10 127,-30 147,-30 147,-10 127,-10"/>
<text text-anchor="start" x="150.73" y="-15.4" font-family="Times-12" font-size="14.00"> &#160;Module</text>
<polygon fill="#80b1d3" stroke="transparent" points="213,-10 213,-30 233,-30 233,-10 213,-10"/>
<text text-anchor="start" x="236.78" y="-15.4" font-family="Times-12" font-size="14.00"> &#160;Bootstrap</text>
<polygon fill="#fdb462" stroke="transparent" points="310,-10 310,-30 330,-30 330,-10 310,-10"/>
<text text-anchor="start" x="333.67" y="-15.4" font-family="Times-12" font-size="14.00"> &#160;Providers</text>
<polygon fill="#fb8072" stroke="transparent" points="406,-10 406,-30 426,-30 426,-10 406,-10"/>
<text text-anchor="start" x="429.73" y="-15.4" font-family="Times-12" font-size="14.00"> &#160;Exports</text>
<g id="clust1" class="cluster">
<title>cluster_ActionModule</title>
<polygon fill="none" stroke="black" stroke-dasharray="1,5" points="16,-70 16,-195 480,-195 480,-70 16,-70"/>
</g>
<g id="clust6" class="cluster">
<title>cluster_ActionModule_providers</title>
<polygon fill="none" stroke="black" points="146,-78 146,-130 472,-130 472,-78 146,-78"/>
</g>
<g id="clust3" class="cluster">
<title>cluster_ActionModule_imports</title>
<polygon fill="none" stroke="black" points="24,-78 24,-130 138,-130 138,-78 24,-78"/>
</g>
<!-- PrismaModule -->
<g id="node1" class="node">
<title>PrismaModule</title>
<polygon fill="#8dd3c7" stroke="black" points="130.43,-122 127.43,-126 106.43,-126 103.43,-122 31.57,-122 31.57,-86 130.43,-86 130.43,-122"/>
<text text-anchor="middle" x="81" y="-99.8" font-family="Times,serif" font-size="14.00">PrismaModule</text>
</g>
<!-- ActionModule -->
<g id="node2" class="node">
<title>ActionModule</title>
<polygon fill="#8dd3c7" stroke="black" points="268.65,-187 265.65,-191 244.65,-191 241.65,-187 171.35,-187 171.35,-151 268.65,-151 268.65,-187"/>
<text text-anchor="middle" x="220" y="-164.8" font-family="Times,serif" font-size="14.00">ActionModule</text>
</g>
<!-- PrismaModule&#45;&gt;ActionModule -->
<g id="edge1" class="edge">
<title>PrismaModule&#45;&gt;ActionModule</title>
<path fill="none" stroke="black" d="M81,-122.11C81,-141.34 81,-169 81,-169 81,-169 160.99,-169 160.99,-169"/>
<polygon fill="black" stroke="black" points="160.99,-172.5 170.99,-169 160.99,-165.5 160.99,-172.5"/>
</g>
<!-- ActionRepository -->
<g id="node3" class="node">
<title>ActionRepository</title>
<ellipse fill="#fdb462" stroke="black" cx="384" cy="-104" rx="79.9" ry="18"/>
<text text-anchor="middle" x="384" y="-99.8" font-family="Times,serif" font-size="14.00">ActionRepository</text>
</g>
<!-- ActionRepository&#45;&gt;ActionModule -->
<g id="edge2" class="edge">
<title>ActionRepository&#45;&gt;ActionModule</title>
<path fill="none" stroke="black" d="M384,-122.11C384,-141.34 384,-169 384,-169 384,-169 278.76,-169 278.76,-169"/>
<polygon fill="black" stroke="black" points="278.76,-165.5 268.76,-169 278.76,-172.5 278.76,-165.5"/>
</g>
<!-- ActionService -->
<g id="node4" class="node">
<title>ActionService</title>
<ellipse fill="#fdb462" stroke="black" cx="220" cy="-104" rx="66.05" ry="18"/>
<text text-anchor="middle" x="220" y="-99.8" font-family="Times,serif" font-size="14.00">ActionService</text>
</g>
<!-- ActionService&#45;&gt;ActionModule -->
<g id="edge3" class="edge">
<title>ActionService&#45;&gt;ActionModule</title>
<path fill="none" stroke="black" d="M220,-122.11C220,-122.11 220,-140.99 220,-140.99"/>
<polygon fill="black" stroke="black" points="216.5,-140.99 220,-150.99 223.5,-140.99 216.5,-140.99"/>
</g>
</g>
</svg>
