<?xml version="1.0" encoding="UTF-8" standalone="no"?>
<!DOCTYPE svg PUBLIC "-//W3C//DTD SVG 1.1//EN"
 "http://www.w3.org/Graphics/SVG/1.1/DTD/svg11.dtd">
<!-- Generated by graphviz version 2.47.0 (20210316.0004)
 -->
<!-- Title: dependencies Pages: 1 -->
<svg width="526pt" height="284pt"
 viewBox="0.00 0.00 526.00 284.00" xmlns="http://www.w3.org/2000/svg" xmlns:xlink="http://www.w3.org/1999/xlink">
<g id="graph0" class="graph" transform="scale(1 1) rotate(0) translate(4 280)">
<title>dependencies</title>
<polygon fill="white" stroke="transparent" points="-4,4 -4,-280 522,-280 522,4 -4,4"/>
<text text-anchor="start" x="238.01" y="-42.4" font-family="Times-12" font-weight="bold" font-size="14.00">Legend</text>
<polygon fill="#ffffb3" stroke="transparent" points="25,-10 25,-30 45,-30 45,-10 25,-10"/>
<text text-anchor="start" x="48.63" y="-15.4" font-family="Times-12" font-size="14.00"> &#160;Declarations</text>
<polygon fill="#8dd3c7" stroke="transparent" points="138,-10 138,-30 158,-30 158,-10 138,-10"/>
<text text-anchor="start" x="161.73" y="-15.4" font-family="Times-12" font-size="14.00"> &#160;Module</text>
<polygon fill="#80b1d3" stroke="transparent" points="224,-10 224,-30 244,-30 244,-10 224,-10"/>
<text text-anchor="start" x="247.78" y="-15.4" font-family="Times-12" font-size="14.00"> &#160;Bootstrap</text>
<polygon fill="#fdb462" stroke="transparent" points="321,-10 321,-30 341,-30 341,-10 321,-10"/>
<text text-anchor="start" x="344.67" y="-15.4" font-family="Times-12" font-size="14.00"> &#160;Providers</text>
<polygon fill="#fb8072" stroke="transparent" points="417,-10 417,-30 437,-30 437,-10 417,-10"/>
<text text-anchor="start" x="440.73" y="-15.4" font-family="Times-12" font-size="14.00"> &#160;Exports</text>
<g id="clust1" class="cluster">
<title>cluster_CommonModule</title>
<polygon fill="none" stroke="black" stroke-dasharray="1,5" points="8,-70 8,-268 510,-268 510,-70 8,-70"/>
</g>
<g id="clust3" class="cluster">
<title>cluster_CommonModule_imports</title>
<polygon fill="none" stroke="black" points="388,-78 388,-130 502,-130 502,-78 388,-78"/>
</g>
<g id="clust4" class="cluster">
<title>cluster_CommonModule_exports</title>
<polygon fill="none" stroke="black" points="148,-208 148,-260 429,-260 429,-208 148,-208"/>
</g>
<g id="clust6" class="cluster">
<title>cluster_CommonModule_providers</title>
<polygon fill="none" stroke="black" points="16,-78 16,-130 380,-130 380,-78 16,-78"/>
</g>
<!-- PrismaModule -->
<g id="node1" class="node">
<title>PrismaModule</title>
<polygon fill="#8dd3c7" stroke="black" points="494.43,-122 491.43,-126 470.43,-126 467.43,-122 395.57,-122 395.57,-86 494.43,-86 494.43,-122"/>
<text text-anchor="middle" x="445" y="-99.8" font-family="Times,serif" font-size="14.00">PrismaModule</text>
</g>
<!-- CommonModule -->
<g id="node2" class="node">
<title>CommonModule</title>
<polygon fill="#8dd3c7" stroke="black" points="338.67,-187 335.67,-191 314.67,-191 311.67,-187 227.33,-187 227.33,-151 338.67,-151 338.67,-187"/>
<text text-anchor="middle" x="283" y="-164.8" font-family="Times,serif" font-size="14.00">CommonModule</text>
</g>
<!-- PrismaModule&#45;&gt;CommonModule -->
<g id="edge1" class="edge">
<title>PrismaModule&#45;&gt;CommonModule</title>
<path fill="none" stroke="black" d="M408.16,-122.11C408.16,-141.34 408.16,-169 408.16,-169 408.16,-169 348.99,-169 348.99,-169"/>
<polygon fill="black" stroke="black" points="348.99,-165.5 338.99,-169 348.99,-172.5 348.99,-165.5"/>
</g>
<!-- CommonRepository  -->
<g id="node3" class="node">
<title>CommonRepository </title>
<polygon fill="#fb8072" stroke="black" points="420.56,-252 287.44,-252 287.44,-216 420.56,-216 420.56,-252"/>
<text text-anchor="middle" x="354" y="-229.8" font-family="Times,serif" font-size="14.00">CommonRepository </text>
</g>
<!-- CommonModule&#45;&gt;CommonRepository  -->
<g id="edge2" class="edge">
<title>CommonModule&#45;&gt;CommonRepository </title>
<path fill="none" stroke="black" stroke-dasharray="5,2" d="M313.15,-187.11C313.15,-187.11 313.15,-205.99 313.15,-205.99"/>
<polygon fill="black" stroke="black" points="309.65,-205.99 313.15,-215.99 316.65,-205.99 309.65,-205.99"/>
</g>
<!-- CommonService  -->
<g id="node4" class="node">
<title>CommonService </title>
<polygon fill="#fb8072" stroke="black" points="269.6,-252 156.4,-252 156.4,-216 269.6,-216 269.6,-252"/>
<text text-anchor="middle" x="213" y="-229.8" font-family="Times,serif" font-size="14.00">CommonService </text>
</g>
<!-- CommonModule&#45;&gt;CommonService  -->
<g id="edge3" class="edge">
<title>CommonModule&#45;&gt;CommonService </title>
<path fill="none" stroke="black" stroke-dasharray="5,2" d="M248.48,-187.11C248.48,-187.11 248.48,-205.99 248.48,-205.99"/>
<polygon fill="black" stroke="black" points="244.98,-205.99 248.48,-215.99 251.98,-205.99 244.98,-205.99"/>
</g>
<!-- CommonRepository -->
<g id="node5" class="node">
<title>CommonRepository</title>
<ellipse fill="#fdb462" stroke="black" cx="283" cy="-104" rx="89.23" ry="18"/>
<text text-anchor="middle" x="283" y="-99.8" font-family="Times,serif" font-size="14.00">CommonRepository</text>
</g>
<!-- CommonRepository&#45;&gt;CommonModule -->
<g id="edge4" class="edge">
<title>CommonRepository&#45;&gt;CommonModule</title>
<path fill="none" stroke="black" d="M283,-122.11C283,-122.11 283,-140.99 283,-140.99"/>
<polygon fill="black" stroke="black" points="279.5,-140.99 283,-150.99 286.5,-140.99 279.5,-140.99"/>
</g>
<!-- CommonService -->
<g id="node6" class="node">
<title>CommonService</title>
<ellipse fill="#fdb462" stroke="black" cx="100" cy="-104" rx="75.88" ry="18"/>
<text text-anchor="middle" x="100" y="-99.8" font-family="Times,serif" font-size="14.00">CommonService</text>
</g>
<!-- CommonService&#45;&gt;CommonModule -->
<g id="edge5" class="edge">
<title>CommonService&#45;&gt;CommonModule</title>
<path fill="none" stroke="black" d="M166.07,-113.04C166.07,-130.9 166.07,-169 166.07,-169 166.07,-169 217.28,-169 217.28,-169"/>
<polygon fill="black" stroke="black" points="217.28,-172.5 227.28,-169 217.28,-165.5 217.28,-172.5"/>
</g>
</g>
</svg>
