<?xml version="1.0" encoding="UTF-8" standalone="no"?>
<!DOCTYPE svg PUBLIC "-//W3C//DTD SVG 1.1//EN"
 "http://www.w3.org/Graphics/SVG/1.1/DTD/svg11.dtd">
<!-- Generated by graphviz version 2.47.0 (20210316.0004)
 -->
<!-- Title: dependencies Pages: 1 -->
<svg width="882pt" height="284pt"
 viewBox="0.00 0.00 882.00 284.00" xmlns="http://www.w3.org/2000/svg" xmlns:xlink="http://www.w3.org/1999/xlink">
<g id="graph0" class="graph" transform="scale(1 1) rotate(0) translate(4 280)">
<title>dependencies</title>
<polygon fill="white" stroke="transparent" points="-4,4 -4,-280 878,-280 878,4 -4,4"/>
<text text-anchor="start" x="416.01" y="-42.4" font-family="Times-12" font-weight="bold" font-size="14.00">Legend</text>
<polygon fill="#ffffb3" stroke="transparent" points="203,-10 203,-30 223,-30 223,-10 203,-10"/>
<text text-anchor="start" x="226.63" y="-15.4" font-family="Times-12" font-size="14.00"> &#160;Declarations</text>
<polygon fill="#8dd3c7" stroke="transparent" points="316,-10 316,-30 336,-30 336,-10 316,-10"/>
<text text-anchor="start" x="339.73" y="-15.4" font-family="Times-12" font-size="14.00"> &#160;Module</text>
<polygon fill="#80b1d3" stroke="transparent" points="402,-10 402,-30 422,-30 422,-10 402,-10"/>
<text text-anchor="start" x="425.78" y="-15.4" font-family="Times-12" font-size="14.00"> &#160;Bootstrap</text>
<polygon fill="#fdb462" stroke="transparent" points="499,-10 499,-30 519,-30 519,-10 499,-10"/>
<text text-anchor="start" x="522.67" y="-15.4" font-family="Times-12" font-size="14.00"> &#160;Providers</text>
<polygon fill="#fb8072" stroke="transparent" points="595,-10 595,-30 615,-30 615,-10 595,-10"/>
<text text-anchor="start" x="618.73" y="-15.4" font-family="Times-12" font-size="14.00"> &#160;Exports</text>
<g id="clust1" class="cluster">
<title>cluster_ReturningModule</title>
<polygon fill="none" stroke="black" stroke-dasharray="1,5" points="8,-70 8,-268 866,-268 866,-70 8,-70"/>
</g>
<g id="clust3" class="cluster">
<title>cluster_ReturningModule_imports</title>
<polygon fill="none" stroke="black" points="400,-78 400,-130 858,-130 858,-78 400,-78"/>
</g>
<g id="clust6" class="cluster">
<title>cluster_ReturningModule_providers</title>
<polygon fill="none" stroke="black" points="16,-78 16,-130 392,-130 392,-78 16,-78"/>
</g>
<g id="clust4" class="cluster">
<title>cluster_ReturningModule_exports</title>
<polygon fill="none" stroke="black" points="380,-208 380,-260 668,-260 668,-208 380,-208"/>
</g>
<!-- ClientModule -->
<g id="node1" class="node">
<title>ClientModule</title>
<polygon fill="#8dd3c7" stroke="black" points="849.77,-122 846.77,-126 825.77,-126 822.77,-122 756.23,-122 756.23,-86 849.77,-86 849.77,-122"/>
<text text-anchor="middle" x="803" y="-99.8" font-family="Times,serif" font-size="14.00">ClientModule</text>
</g>
<!-- ReturningModule -->
<g id="node5" class="node">
<title>ReturningModule</title>
<polygon fill="#8dd3c7" stroke="black" points="576.54,-187 573.54,-191 552.54,-191 549.54,-187 461.46,-187 461.46,-151 576.54,-151 576.54,-187"/>
<text text-anchor="middle" x="519" y="-164.8" font-family="Times,serif" font-size="14.00">ReturningModule</text>
</g>
<!-- ClientModule&#45;&gt;ReturningModule -->
<g id="edge1" class="edge">
<title>ClientModule&#45;&gt;ReturningModule</title>
<path fill="none" stroke="black" d="M803,-122.28C803,-143.32 803,-175 803,-175 803,-175 586.81,-175 586.81,-175"/>
<polygon fill="black" stroke="black" points="586.81,-171.5 576.81,-175 586.81,-178.5 586.81,-171.5"/>
</g>
<!-- ExcelModule -->
<g id="node2" class="node">
<title>ExcelModule</title>
<polygon fill="#8dd3c7" stroke="black" points="737.92,-122 734.92,-126 713.92,-126 710.92,-122 646.08,-122 646.08,-86 737.92,-86 737.92,-122"/>
<text text-anchor="middle" x="692" y="-99.8" font-family="Times,serif" font-size="14.00">ExcelModule</text>
</g>
<!-- ExcelModule&#45;&gt;ReturningModule -->
<g id="edge2" class="edge">
<title>ExcelModule&#45;&gt;ReturningModule</title>
<path fill="none" stroke="black" d="M653.38,-122.02C653.38,-139.37 653.38,-163 653.38,-163 653.38,-163 586.77,-163 586.77,-163"/>
<polygon fill="black" stroke="black" points="586.77,-159.5 576.77,-163 586.77,-166.5 586.77,-159.5"/>
</g>
<!-- PrismaModule -->
<g id="node3" class="node">
<title>PrismaModule</title>
<polygon fill="#8dd3c7" stroke="black" points="628.43,-122 625.43,-126 604.43,-126 601.43,-122 529.57,-122 529.57,-86 628.43,-86 628.43,-122"/>
<text text-anchor="middle" x="579" y="-99.8" font-family="Times,serif" font-size="14.00">PrismaModule</text>
</g>
<!-- PrismaModule&#45;&gt;ReturningModule -->
<g id="edge3" class="edge">
<title>PrismaModule&#45;&gt;ReturningModule</title>
<path fill="none" stroke="black" d="M553.28,-122.11C553.28,-122.11 553.28,-140.99 553.28,-140.99"/>
<polygon fill="black" stroke="black" points="549.78,-140.99 553.28,-150.99 556.78,-140.99 549.78,-140.99"/>
</g>
<!-- ProductModule -->
<g id="node4" class="node">
<title>ProductModule</title>
<polygon fill="#8dd3c7" stroke="black" points="511.6,-122 508.6,-126 487.6,-126 484.6,-122 408.4,-122 408.4,-86 511.6,-86 511.6,-122"/>
<text text-anchor="middle" x="460" y="-99.8" font-family="Times,serif" font-size="14.00">ProductModule</text>
</g>
<!-- ProductModule&#45;&gt;ReturningModule -->
<g id="edge4" class="edge">
<title>ProductModule&#45;&gt;ReturningModule</title>
<path fill="none" stroke="black" d="M486.39,-122.11C486.39,-122.11 486.39,-140.99 486.39,-140.99"/>
<polygon fill="black" stroke="black" points="482.89,-140.99 486.39,-150.99 489.89,-140.99 482.89,-140.99"/>
</g>
<!-- ReturningRepository  -->
<g id="node6" class="node">
<title>ReturningRepository </title>
<polygon fill="#fb8072" stroke="black" points="660.43,-252 523.57,-252 523.57,-216 660.43,-216 660.43,-252"/>
<text text-anchor="middle" x="592" y="-229.8" font-family="Times,serif" font-size="14.00">ReturningRepository </text>
</g>
<!-- ReturningModule&#45;&gt;ReturningRepository  -->
<g id="edge5" class="edge">
<title>ReturningModule&#45;&gt;ReturningRepository </title>
<path fill="none" stroke="black" stroke-dasharray="5,2" d="M550.15,-187.11C550.15,-187.11 550.15,-205.99 550.15,-205.99"/>
<polygon fill="black" stroke="black" points="546.65,-205.99 550.15,-215.99 553.65,-205.99 546.65,-205.99"/>
</g>
<!-- ReturningService  -->
<g id="node7" class="node">
<title>ReturningService </title>
<polygon fill="#fb8072" stroke="black" points="505.97,-252 388.03,-252 388.03,-216 505.97,-216 505.97,-252"/>
<text text-anchor="middle" x="447" y="-229.8" font-family="Times,serif" font-size="14.00">ReturningService </text>
</g>
<!-- ReturningModule&#45;&gt;ReturningService  -->
<g id="edge6" class="edge">
<title>ReturningModule&#45;&gt;ReturningService </title>
<path fill="none" stroke="black" stroke-dasharray="5,2" d="M483.48,-187.11C483.48,-187.11 483.48,-205.99 483.48,-205.99"/>
<polygon fill="black" stroke="black" points="479.98,-205.99 483.48,-215.99 486.98,-205.99 479.98,-205.99"/>
</g>
<!-- ReturningRepository -->
<g id="node8" class="node">
<title>ReturningRepository</title>
<ellipse fill="#fdb462" stroke="black" cx="292" cy="-104" rx="92.08" ry="18"/>
<text text-anchor="middle" x="292" y="-99.8" font-family="Times,serif" font-size="14.00">ReturningRepository</text>
</g>
<!-- ReturningRepository&#45;&gt;ReturningModule -->
<g id="edge7" class="edge">
<title>ReturningRepository&#45;&gt;ReturningModule</title>
<path fill="none" stroke="black" d="M292,-122.02C292,-139.37 292,-163 292,-163 292,-163 451.42,-163 451.42,-163"/>
<polygon fill="black" stroke="black" points="451.42,-166.5 461.42,-163 451.42,-159.5 451.42,-166.5"/>
</g>
<!-- ReturningService -->
<g id="node9" class="node">
<title>ReturningService</title>
<ellipse fill="#fdb462" stroke="black" cx="103" cy="-104" rx="78.73" ry="18"/>
<text text-anchor="middle" x="103" y="-99.8" font-family="Times,serif" font-size="14.00">ReturningService</text>
</g>
<!-- ReturningService&#45;&gt;ReturningModule -->
<g id="edge8" class="edge">
<title>ReturningService&#45;&gt;ReturningModule</title>
<path fill="none" stroke="black" d="M103,-122.28C103,-143.32 103,-175 103,-175 103,-175 451.16,-175 451.16,-175"/>
<polygon fill="black" stroke="black" points="451.16,-178.5 461.16,-175 451.16,-171.5 451.16,-178.5"/>
</g>
</g>
</svg>
