<?xml version="1.0" encoding="UTF-8" standalone="no"?>
<!DOCTYPE svg PUBLIC "-//W3C//DTD SVG 1.1//EN"
 "http://www.w3.org/Graphics/SVG/1.1/DTD/svg11.dtd">
<!-- Generated by graphviz version 2.47.0 (20210316.0004)
 -->
<!-- Title: dependencies Pages: 1 -->
<svg width="783pt" height="211pt"
 viewBox="0.00 0.00 783.00 211.00" xmlns="http://www.w3.org/2000/svg" xmlns:xlink="http://www.w3.org/1999/xlink">
<g id="graph0" class="graph" transform="scale(1 1) rotate(0) translate(4 207)">
<title>dependencies</title>
<polygon fill="white" stroke="transparent" points="-4,4 -4,-207 779,-207 779,4 -4,4"/>
<text text-anchor="start" x="366.51" y="-42.4" font-family="Times-12" font-weight="bold" font-size="14.00">Legend</text>
<polygon fill="#ffffb3" stroke="transparent" points="153.5,-10 153.5,-30 173.5,-30 173.5,-10 153.5,-10"/>
<text text-anchor="start" x="177.13" y="-15.4" font-family="Times-12" font-size="14.00"> &#160;Declarations</text>
<polygon fill="#8dd3c7" stroke="transparent" points="266.5,-10 266.5,-30 286.5,-30 286.5,-10 266.5,-10"/>
<text text-anchor="start" x="290.23" y="-15.4" font-family="Times-12" font-size="14.00"> &#160;Module</text>
<polygon fill="#80b1d3" stroke="transparent" points="352.5,-10 352.5,-30 372.5,-30 372.5,-10 352.5,-10"/>
<text text-anchor="start" x="376.28" y="-15.4" font-family="Times-12" font-size="14.00"> &#160;Bootstrap</text>
<polygon fill="#fdb462" stroke="transparent" points="449.5,-10 449.5,-30 469.5,-30 469.5,-10 449.5,-10"/>
<text text-anchor="start" x="473.17" y="-15.4" font-family="Times-12" font-size="14.00"> &#160;Providers</text>
<polygon fill="#fb8072" stroke="transparent" points="545.5,-10 545.5,-30 565.5,-30 565.5,-10 545.5,-10"/>
<text text-anchor="start" x="569.23" y="-15.4" font-family="Times-12" font-size="14.00"> &#160;Exports</text>
<g id="clust1" class="cluster">
<title>cluster_AuthModule</title>
<polygon fill="none" stroke="black" stroke-dasharray="1,5" points="8,-70 8,-195 767,-195 767,-70 8,-70"/>
</g>
<g id="clust6" class="cluster">
<title>cluster_AuthModule_providers</title>
<polygon fill="none" stroke="black" points="243,-78 243,-130 759,-130 759,-78 243,-78"/>
</g>
<g id="clust3" class="cluster">
<title>cluster_AuthModule_imports</title>
<polygon fill="none" stroke="black" points="16,-78 16,-130 235,-130 235,-78 16,-78"/>
</g>
<!-- PrismaModule -->
<g id="node1" class="node">
<title>PrismaModule</title>
<polygon fill="#8dd3c7" stroke="black" points="227.43,-122 224.43,-126 203.43,-126 200.43,-122 128.57,-122 128.57,-86 227.43,-86 227.43,-122"/>
<text text-anchor="middle" x="178" y="-99.8" font-family="Times,serif" font-size="14.00">PrismaModule</text>
</g>
<!-- AuthModule -->
<g id="node3" class="node">
<title>AuthModule</title>
<polygon fill="#8dd3c7" stroke="black" points="394.55,-187 391.55,-191 370.55,-191 367.55,-187 307.45,-187 307.45,-151 394.55,-151 394.55,-187"/>
<text text-anchor="middle" x="351" y="-164.8" font-family="Times,serif" font-size="14.00">AuthModule</text>
</g>
<!-- PrismaModule&#45;&gt;AuthModule -->
<g id="edge1" class="edge">
<title>PrismaModule&#45;&gt;AuthModule</title>
<path fill="none" stroke="black" d="M178,-122.02C178,-139.37 178,-163 178,-163 178,-163 297.34,-163 297.34,-163"/>
<polygon fill="black" stroke="black" points="297.34,-166.5 307.34,-163 297.34,-159.5 297.34,-166.5"/>
</g>
<!-- StaffModule -->
<g id="node2" class="node">
<title>StaffModule</title>
<polygon fill="#8dd3c7" stroke="black" points="110.26,-122 107.26,-126 86.26,-126 83.26,-122 23.74,-122 23.74,-86 110.26,-86 110.26,-122"/>
<text text-anchor="middle" x="67" y="-99.8" font-family="Times,serif" font-size="14.00">StaffModule</text>
</g>
<!-- StaffModule&#45;&gt;AuthModule -->
<g id="edge2" class="edge">
<title>StaffModule&#45;&gt;AuthModule</title>
<path fill="none" stroke="black" d="M67,-122.28C67,-143.32 67,-175 67,-175 67,-175 297.25,-175 297.25,-175"/>
<polygon fill="black" stroke="black" points="297.25,-178.5 307.25,-175 297.25,-171.5 297.25,-178.5"/>
</g>
<!-- AuthRepository -->
<g id="node4" class="node">
<title>AuthRepository</title>
<ellipse fill="#fdb462" stroke="black" cx="678" cy="-104" rx="72.95" ry="18"/>
<text text-anchor="middle" x="678" y="-99.8" font-family="Times,serif" font-size="14.00">AuthRepository</text>
</g>
<!-- AuthRepository&#45;&gt;AuthModule -->
<g id="edge3" class="edge">
<title>AuthRepository&#45;&gt;AuthModule</title>
<path fill="none" stroke="black" d="M678,-122.28C678,-143.32 678,-175 678,-175 678,-175 404.76,-175 404.76,-175"/>
<polygon fill="black" stroke="black" points="404.76,-171.5 394.76,-175 404.76,-178.5 404.76,-171.5"/>
</g>
<!-- AuthService -->
<g id="node5" class="node">
<title>AuthService</title>
<ellipse fill="#fdb462" stroke="black" cx="528" cy="-104" rx="59.11" ry="18"/>
<text text-anchor="middle" x="528" y="-99.8" font-family="Times,serif" font-size="14.00">AuthService</text>
</g>
<!-- AuthService&#45;&gt;AuthModule -->
<g id="edge4" class="edge">
<title>AuthService&#45;&gt;AuthModule</title>
<path fill="none" stroke="black" d="M528,-122.02C528,-139.37 528,-163 528,-163 528,-163 404.75,-163 404.75,-163"/>
<polygon fill="black" stroke="black" points="404.75,-159.5 394.75,-163 404.75,-166.5 404.75,-159.5"/>
</g>
<!-- JsonWebTokenService -->
<g id="node6" class="node">
<title>JsonWebTokenService</title>
<ellipse fill="#fdb462" stroke="black" cx="351" cy="-104" rx="100.12" ry="18"/>
<text text-anchor="middle" x="351" y="-99.8" font-family="Times,serif" font-size="14.00">JsonWebTokenService</text>
</g>
<!-- JsonWebTokenService&#45;&gt;AuthModule -->
<g id="edge5" class="edge">
<title>JsonWebTokenService&#45;&gt;AuthModule</title>
<path fill="none" stroke="black" d="M351,-122.11C351,-122.11 351,-140.99 351,-140.99"/>
<polygon fill="black" stroke="black" points="347.5,-140.99 351,-150.99 354.5,-140.99 347.5,-140.99"/>
</g>
</g>
</svg>
