<?xml version="1.0" encoding="UTF-8" standalone="no"?>
<!DOCTYPE svg PUBLIC "-//W3C//DTD SVG 1.1//EN"
 "http://www.w3.org/Graphics/SVG/1.1/DTD/svg11.dtd">
<!-- Generated by graphviz version 2.47.0 (20210316.0004)
 -->
<!-- Title: dependencies Pages: 1 -->
<svg width="624pt" height="284pt"
 viewBox="0.00 0.00 624.00 284.00" xmlns="http://www.w3.org/2000/svg" xmlns:xlink="http://www.w3.org/1999/xlink">
<g id="graph0" class="graph" transform="scale(1 1) rotate(0) translate(4 280)">
<title>dependencies</title>
<polygon fill="white" stroke="transparent" points="-4,4 -4,-280 620,-280 620,4 -4,4"/>
<text text-anchor="start" x="287.01" y="-42.4" font-family="Times-12" font-weight="bold" font-size="14.00">Legend</text>
<polygon fill="#ffffb3" stroke="transparent" points="74,-10 74,-30 94,-30 94,-10 74,-10"/>
<text text-anchor="start" x="97.63" y="-15.4" font-family="Times-12" font-size="14.00"> &#160;Declarations</text>
<polygon fill="#8dd3c7" stroke="transparent" points="187,-10 187,-30 207,-30 207,-10 187,-10"/>
<text text-anchor="start" x="210.73" y="-15.4" font-family="Times-12" font-size="14.00"> &#160;Module</text>
<polygon fill="#80b1d3" stroke="transparent" points="273,-10 273,-30 293,-30 293,-10 273,-10"/>
<text text-anchor="start" x="296.78" y="-15.4" font-family="Times-12" font-size="14.00"> &#160;Bootstrap</text>
<polygon fill="#fdb462" stroke="transparent" points="370,-10 370,-30 390,-30 390,-10 370,-10"/>
<text text-anchor="start" x="393.67" y="-15.4" font-family="Times-12" font-size="14.00"> &#160;Providers</text>
<polygon fill="#fb8072" stroke="transparent" points="466,-10 466,-30 486,-30 486,-10 466,-10"/>
<text text-anchor="start" x="489.73" y="-15.4" font-family="Times-12" font-size="14.00"> &#160;Exports</text>
<g id="clust1" class="cluster">
<title>cluster_SupplierModule</title>
<polygon fill="none" stroke="black" stroke-dasharray="1,5" points="8,-70 8,-268 608,-268 608,-70 8,-70"/>
</g>
<g id="clust4" class="cluster">
<title>cluster_SupplierModule_exports</title>
<polygon fill="none" stroke="black" points="127,-208 127,-260 398,-260 398,-208 127,-208"/>
</g>
<g id="clust6" class="cluster">
<title>cluster_SupplierModule_providers</title>
<polygon fill="none" stroke="black" points="248,-78 248,-130 600,-130 600,-78 248,-78"/>
</g>
<g id="clust3" class="cluster">
<title>cluster_SupplierModule_imports</title>
<polygon fill="none" stroke="black" points="16,-78 16,-130 240,-130 240,-78 16,-78"/>
</g>
<!-- ExcelModule -->
<g id="node1" class="node">
<title>ExcelModule</title>
<polygon fill="#8dd3c7" stroke="black" points="231.92,-122 228.92,-126 207.92,-126 204.92,-122 140.08,-122 140.08,-86 231.92,-86 231.92,-122"/>
<text text-anchor="middle" x="186" y="-99.8" font-family="Times,serif" font-size="14.00">ExcelModule</text>
</g>
<!-- SupplierModule -->
<g id="node3" class="node">
<title>SupplierModule</title>
<polygon fill="#8dd3c7" stroke="black" points="310.49,-187 307.49,-191 286.49,-191 283.49,-187 203.51,-187 203.51,-151 310.49,-151 310.49,-187"/>
<text text-anchor="middle" x="257" y="-164.8" font-family="Times,serif" font-size="14.00">SupplierModule</text>
</g>
<!-- ExcelModule&#45;&gt;SupplierModule -->
<g id="edge1" class="edge">
<title>ExcelModule&#45;&gt;SupplierModule</title>
<path fill="none" stroke="black" d="M217.61,-122.11C217.61,-122.11 217.61,-140.99 217.61,-140.99"/>
<polygon fill="black" stroke="black" points="214.11,-140.99 217.61,-150.99 221.11,-140.99 214.11,-140.99"/>
</g>
<!-- PrismaModule -->
<g id="node2" class="node">
<title>PrismaModule</title>
<polygon fill="#8dd3c7" stroke="black" points="122.43,-122 119.43,-126 98.43,-126 95.43,-122 23.57,-122 23.57,-86 122.43,-86 122.43,-122"/>
<text text-anchor="middle" x="73" y="-99.8" font-family="Times,serif" font-size="14.00">PrismaModule</text>
</g>
<!-- PrismaModule&#45;&gt;SupplierModule -->
<g id="edge2" class="edge">
<title>PrismaModule&#45;&gt;SupplierModule</title>
<path fill="none" stroke="black" d="M73,-122.11C73,-141.34 73,-169 73,-169 73,-169 193.28,-169 193.28,-169"/>
<polygon fill="black" stroke="black" points="193.28,-172.5 203.28,-169 193.28,-165.5 193.28,-172.5"/>
</g>
<!-- SupplierRepository  -->
<g id="node4" class="node">
<title>SupplierRepository </title>
<polygon fill="#fb8072" stroke="black" points="390.38,-252 261.62,-252 261.62,-216 390.38,-216 390.38,-252"/>
<text text-anchor="middle" x="326" y="-229.8" font-family="Times,serif" font-size="14.00">SupplierRepository </text>
</g>
<!-- SupplierModule&#45;&gt;SupplierRepository  -->
<g id="edge3" class="edge">
<title>SupplierModule&#45;&gt;SupplierRepository </title>
<path fill="none" stroke="black" stroke-dasharray="5,2" d="M286.15,-187.11C286.15,-187.11 286.15,-205.99 286.15,-205.99"/>
<polygon fill="black" stroke="black" points="282.65,-205.99 286.15,-215.99 289.65,-205.99 282.65,-205.99"/>
</g>
<!-- SupplierService  -->
<g id="node5" class="node">
<title>SupplierService </title>
<polygon fill="#fb8072" stroke="black" points="243.42,-252 134.58,-252 134.58,-216 243.42,-216 243.42,-252"/>
<text text-anchor="middle" x="189" y="-229.8" font-family="Times,serif" font-size="14.00">SupplierService </text>
</g>
<!-- SupplierModule&#45;&gt;SupplierService  -->
<g id="edge4" class="edge">
<title>SupplierModule&#45;&gt;SupplierService </title>
<path fill="none" stroke="black" stroke-dasharray="5,2" d="M223.48,-187.11C223.48,-187.11 223.48,-205.99 223.48,-205.99"/>
<polygon fill="black" stroke="black" points="219.98,-205.99 223.48,-215.99 226.98,-205.99 219.98,-205.99"/>
</g>
<!-- SupplierRepository -->
<g id="node6" class="node">
<title>SupplierRepository</title>
<ellipse fill="#fdb462" stroke="black" cx="506" cy="-104" rx="86.28" ry="18"/>
<text text-anchor="middle" x="506" y="-99.8" font-family="Times,serif" font-size="14.00">SupplierRepository</text>
</g>
<!-- SupplierRepository&#45;&gt;SupplierModule -->
<g id="edge5" class="edge">
<title>SupplierRepository&#45;&gt;SupplierModule</title>
<path fill="none" stroke="black" d="M506,-122.11C506,-141.34 506,-169 506,-169 506,-169 320.72,-169 320.72,-169"/>
<polygon fill="black" stroke="black" points="320.72,-165.5 310.72,-169 320.72,-172.5 320.72,-165.5"/>
</g>
<!-- SupplierService -->
<g id="node7" class="node">
<title>SupplierService</title>
<ellipse fill="#fdb462" stroke="black" cx="329" cy="-104" rx="72.93" ry="18"/>
<text text-anchor="middle" x="329" y="-99.8" font-family="Times,serif" font-size="14.00">SupplierService</text>
</g>
<!-- SupplierService&#45;&gt;SupplierModule -->
<g id="edge6" class="edge">
<title>SupplierService&#45;&gt;SupplierModule</title>
<path fill="none" stroke="black" d="M283.39,-118.1C283.39,-118.1 283.39,-140.72 283.39,-140.72"/>
<polygon fill="black" stroke="black" points="279.89,-140.72 283.39,-150.72 286.89,-140.72 279.89,-140.72"/>
</g>
</g>
</svg>
