<?xml version="1.0" encoding="UTF-8" standalone="no"?>
<!DOCTYPE svg PUBLIC "-//W3C//DTD SVG 1.1//EN"
 "http://www.w3.org/Graphics/SVG/1.1/DTD/svg11.dtd">
<!-- Generated by graphviz version 2.47.0 (20210316.0004)
 -->
<!-- Title: dependencies Pages: 1 -->
<svg width="504pt" height="284pt"
 viewBox="0.00 0.00 504.00 284.00" xmlns="http://www.w3.org/2000/svg" xmlns:xlink="http://www.w3.org/1999/xlink">
<g id="graph0" class="graph" transform="scale(1 1) rotate(0) translate(4 280)">
<title>dependencies</title>
<polygon fill="white" stroke="transparent" points="-4,4 -4,-280 500,-280 500,4 -4,4"/>
<text text-anchor="start" x="227.01" y="-42.4" font-family="Times-12" font-weight="bold" font-size="14.00">Legend</text>
<polygon fill="#ffffb3" stroke="transparent" points="14,-10 14,-30 34,-30 34,-10 14,-10"/>
<text text-anchor="start" x="37.63" y="-15.4" font-family="Times-12" font-size="14.00"> &#160;Declarations</text>
<polygon fill="#8dd3c7" stroke="transparent" points="127,-10 127,-30 147,-30 147,-10 127,-10"/>
<text text-anchor="start" x="150.73" y="-15.4" font-family="Times-12" font-size="14.00"> &#160;Module</text>
<polygon fill="#80b1d3" stroke="transparent" points="213,-10 213,-30 233,-30 233,-10 213,-10"/>
<text text-anchor="start" x="236.78" y="-15.4" font-family="Times-12" font-size="14.00"> &#160;Bootstrap</text>
<polygon fill="#fdb462" stroke="transparent" points="310,-10 310,-30 330,-30 330,-10 310,-10"/>
<text text-anchor="start" x="333.67" y="-15.4" font-family="Times-12" font-size="14.00"> &#160;Providers</text>
<polygon fill="#fb8072" stroke="transparent" points="406,-10 406,-30 426,-30 426,-10 406,-10"/>
<text text-anchor="start" x="429.73" y="-15.4" font-family="Times-12" font-size="14.00"> &#160;Exports</text>
<g id="clust1" class="cluster">
<title>cluster_StaffModule</title>
<polygon fill="none" stroke="black" stroke-dasharray="1,5" points="31,-70 31,-268 465,-268 465,-70 31,-70"/>
</g>
<g id="clust3" class="cluster">
<title>cluster_StaffModule_imports</title>
<polygon fill="none" stroke="black" points="343,-78 343,-130 457,-130 457,-78 343,-78"/>
</g>
<g id="clust4" class="cluster">
<title>cluster_StaffModule_exports</title>
<polygon fill="none" stroke="black" points="145,-208 145,-260 375,-260 375,-208 145,-208"/>
</g>
<g id="clust6" class="cluster">
<title>cluster_StaffModule_providers</title>
<polygon fill="none" stroke="black" points="39,-78 39,-130 335,-130 335,-78 39,-78"/>
</g>
<!-- PrismaModule -->
<g id="node1" class="node">
<title>PrismaModule</title>
<polygon fill="#8dd3c7" stroke="black" points="449.43,-122 446.43,-126 425.43,-126 422.43,-122 350.57,-122 350.57,-86 449.43,-86 449.43,-122"/>
<text text-anchor="middle" x="400" y="-99.8" font-family="Times,serif" font-size="14.00">PrismaModule</text>
</g>
<!-- StaffModule -->
<g id="node2" class="node">
<title>StaffModule</title>
<polygon fill="#8dd3c7" stroke="black" points="298.26,-187 295.26,-191 274.26,-191 271.26,-187 211.74,-187 211.74,-151 298.26,-151 298.26,-187"/>
<text text-anchor="middle" x="255" y="-164.8" font-family="Times,serif" font-size="14.00">StaffModule</text>
</g>
<!-- PrismaModule&#45;&gt;StaffModule -->
<g id="edge1" class="edge">
<title>PrismaModule&#45;&gt;StaffModule</title>
<path fill="none" stroke="black" d="M358.93,-122.11C358.93,-141.34 358.93,-169 358.93,-169 358.93,-169 308.47,-169 308.47,-169"/>
<polygon fill="black" stroke="black" points="308.47,-165.5 298.47,-169 308.47,-172.5 308.47,-165.5"/>
</g>
<!-- StaffRepository  -->
<g id="node3" class="node">
<title>StaffRepository </title>
<polygon fill="#fb8072" stroke="black" points="367.15,-252 258.85,-252 258.85,-216 367.15,-216 367.15,-252"/>
<text text-anchor="middle" x="313" y="-229.8" font-family="Times,serif" font-size="14.00">StaffRepository </text>
</g>
<!-- StaffModule&#45;&gt;StaffRepository  -->
<g id="edge2" class="edge">
<title>StaffModule&#45;&gt;StaffRepository </title>
<path fill="none" stroke="black" stroke-dasharray="5,2" d="M278.65,-187.11C278.65,-187.11 278.65,-205.99 278.65,-205.99"/>
<polygon fill="black" stroke="black" points="275.15,-205.99 278.65,-215.99 282.15,-205.99 275.15,-205.99"/>
</g>
<!-- StaffService  -->
<g id="node4" class="node">
<title>StaffService </title>
<polygon fill="#fb8072" stroke="black" points="241.19,-252 152.81,-252 152.81,-216 241.19,-216 241.19,-252"/>
<text text-anchor="middle" x="197" y="-229.8" font-family="Times,serif" font-size="14.00">StaffService </text>
</g>
<!-- StaffModule&#45;&gt;StaffService  -->
<g id="edge3" class="edge">
<title>StaffModule&#45;&gt;StaffService </title>
<path fill="none" stroke="black" stroke-dasharray="5,2" d="M226.48,-187.11C226.48,-187.11 226.48,-205.99 226.48,-205.99"/>
<polygon fill="black" stroke="black" points="222.98,-205.99 226.48,-215.99 229.98,-205.99 222.98,-205.99"/>
</g>
<!-- StaffRepository -->
<g id="node5" class="node">
<title>StaffRepository</title>
<ellipse fill="#fdb462" stroke="black" cx="255" cy="-104" rx="72.37" ry="18"/>
<text text-anchor="middle" x="255" y="-99.8" font-family="Times,serif" font-size="14.00">StaffRepository</text>
</g>
<!-- StaffRepository&#45;&gt;StaffModule -->
<g id="edge4" class="edge">
<title>StaffRepository&#45;&gt;StaffModule</title>
<path fill="none" stroke="black" d="M255,-122.11C255,-122.11 255,-140.99 255,-140.99"/>
<polygon fill="black" stroke="black" points="251.5,-140.99 255,-150.99 258.5,-140.99 251.5,-140.99"/>
</g>
<!-- StaffService -->
<g id="node6" class="node">
<title>StaffService</title>
<ellipse fill="#fdb462" stroke="black" cx="106" cy="-104" rx="58.52" ry="18"/>
<text text-anchor="middle" x="106" y="-99.8" font-family="Times,serif" font-size="14.00">StaffService</text>
</g>
<!-- StaffService&#45;&gt;StaffModule -->
<g id="edge5" class="edge">
<title>StaffService&#45;&gt;StaffModule</title>
<path fill="none" stroke="black" d="M158.71,-111.97C158.71,-129.33 158.71,-169 158.71,-169 158.71,-169 201.64,-169 201.64,-169"/>
<polygon fill="black" stroke="black" points="201.64,-172.5 211.64,-169 201.64,-165.5 201.64,-172.5"/>
</g>
</g>
</svg>
