<?xml version="1.0" encoding="UTF-8" standalone="no"?>
<!DOCTYPE svg PUBLIC "-//W3C//DTD SVG 1.1//EN"
 "http://www.w3.org/Graphics/SVG/1.1/DTD/svg11.dtd">
<!-- Generated by graphviz version 2.47.0 (20210316.0004)
 -->
<!-- Title: dependencies Pages: 1 -->
<svg width="759pt" height="284pt"
 viewBox="0.00 0.00 759.00 284.00" xmlns="http://www.w3.org/2000/svg" xmlns:xlink="http://www.w3.org/1999/xlink">
<g id="graph0" class="graph" transform="scale(1 1) rotate(0) translate(4 280)">
<title>dependencies</title>
<polygon fill="white" stroke="transparent" points="-4,4 -4,-280 755,-280 755,4 -4,4"/>
<text text-anchor="start" x="354.51" y="-42.4" font-family="Times-12" font-weight="bold" font-size="14.00">Legend</text>
<polygon fill="#ffffb3" stroke="transparent" points="141.5,-10 141.5,-30 161.5,-30 161.5,-10 141.5,-10"/>
<text text-anchor="start" x="165.13" y="-15.4" font-family="Times-12" font-size="14.00"> &#160;Declarations</text>
<polygon fill="#8dd3c7" stroke="transparent" points="254.5,-10 254.5,-30 274.5,-30 274.5,-10 254.5,-10"/>
<text text-anchor="start" x="278.23" y="-15.4" font-family="Times-12" font-size="14.00"> &#160;Module</text>
<polygon fill="#80b1d3" stroke="transparent" points="340.5,-10 340.5,-30 360.5,-30 360.5,-10 340.5,-10"/>
<text text-anchor="start" x="364.28" y="-15.4" font-family="Times-12" font-size="14.00"> &#160;Bootstrap</text>
<polygon fill="#fdb462" stroke="transparent" points="437.5,-10 437.5,-30 457.5,-30 457.5,-10 437.5,-10"/>
<text text-anchor="start" x="461.17" y="-15.4" font-family="Times-12" font-size="14.00"> &#160;Providers</text>
<polygon fill="#fb8072" stroke="transparent" points="533.5,-10 533.5,-30 553.5,-30 553.5,-10 533.5,-10"/>
<text text-anchor="start" x="557.23" y="-15.4" font-family="Times-12" font-size="14.00"> &#160;Exports</text>
<g id="clust1" class="cluster">
<title>cluster_SupplierPaymentModule</title>
<polygon fill="none" stroke="black" stroke-dasharray="1,5" points="8,-70 8,-268 743,-268 743,-70 8,-70"/>
</g>
<g id="clust3" class="cluster">
<title>cluster_SupplierPaymentModule_imports</title>
<polygon fill="none" stroke="black" points="511,-78 511,-130 735,-130 735,-78 511,-78"/>
</g>
<g id="clust6" class="cluster">
<title>cluster_SupplierPaymentModule_providers</title>
<polygon fill="none" stroke="black" points="16,-78 16,-130 503,-130 503,-78 16,-78"/>
</g>
<g id="clust4" class="cluster">
<title>cluster_SupplierPaymentModule_exports</title>
<polygon fill="none" stroke="black" points="233,-208 233,-260 603,-260 603,-208 233,-208"/>
</g>
<!-- ExcelModule -->
<g id="node1" class="node">
<title>ExcelModule</title>
<polygon fill="#8dd3c7" stroke="black" points="726.92,-122 723.92,-126 702.92,-126 699.92,-122 635.08,-122 635.08,-86 726.92,-86 726.92,-122"/>
<text text-anchor="middle" x="681" y="-99.8" font-family="Times,serif" font-size="14.00">ExcelModule</text>
</g>
<!-- SupplierPaymentModule -->
<g id="node3" class="node">
<title>SupplierPaymentModule</title>
<polygon fill="#8dd3c7" stroke="black" points="490.98,-187 487.98,-191 466.98,-191 463.98,-187 335.02,-187 335.02,-151 490.98,-151 490.98,-187"/>
<text text-anchor="middle" x="413" y="-164.8" font-family="Times,serif" font-size="14.00">SupplierPaymentModule</text>
</g>
<!-- ExcelModule&#45;&gt;SupplierPaymentModule -->
<g id="edge1" class="edge">
<title>ExcelModule&#45;&gt;SupplierPaymentModule</title>
<path fill="none" stroke="black" d="M681,-122.28C681,-143.32 681,-175 681,-175 681,-175 501.24,-175 501.24,-175"/>
<polygon fill="black" stroke="black" points="501.24,-171.5 491.24,-175 501.24,-178.5 501.24,-171.5"/>
</g>
<!-- PrismaModule -->
<g id="node2" class="node">
<title>PrismaModule</title>
<polygon fill="#8dd3c7" stroke="black" points="617.43,-122 614.43,-126 593.43,-126 590.43,-122 518.57,-122 518.57,-86 617.43,-86 617.43,-122"/>
<text text-anchor="middle" x="568" y="-99.8" font-family="Times,serif" font-size="14.00">PrismaModule</text>
</g>
<!-- PrismaModule&#45;&gt;SupplierPaymentModule -->
<g id="edge2" class="edge">
<title>PrismaModule&#45;&gt;SupplierPaymentModule</title>
<path fill="none" stroke="black" d="M556.73,-122.02C556.73,-139.37 556.73,-163 556.73,-163 556.73,-163 501.18,-163 501.18,-163"/>
<polygon fill="black" stroke="black" points="501.18,-159.5 491.18,-163 501.18,-166.5 501.18,-159.5"/>
</g>
<!-- SupplierPaymentRepository  -->
<g id="node4" class="node">
<title>SupplierPaymentRepository </title>
<polygon fill="#fb8072" stroke="black" points="594.87,-252 417.13,-252 417.13,-216 594.87,-216 594.87,-252"/>
<text text-anchor="middle" x="506" y="-229.8" font-family="Times,serif" font-size="14.00">SupplierPaymentRepository </text>
</g>
<!-- SupplierPaymentModule&#45;&gt;SupplierPaymentRepository  -->
<g id="edge3" class="edge">
<title>SupplierPaymentModule&#45;&gt;SupplierPaymentRepository </title>
<path fill="none" stroke="black" stroke-dasharray="5,2" d="M454.15,-187.11C454.15,-187.11 454.15,-205.99 454.15,-205.99"/>
<polygon fill="black" stroke="black" points="450.65,-205.99 454.15,-215.99 457.65,-205.99 450.65,-205.99"/>
</g>
<!-- SupplierPaymentService  -->
<g id="node5" class="node">
<title>SupplierPaymentService </title>
<polygon fill="#fb8072" stroke="black" points="398.91,-252 241.09,-252 241.09,-216 398.91,-216 398.91,-252"/>
<text text-anchor="middle" x="320" y="-229.8" font-family="Times,serif" font-size="14.00">SupplierPaymentService </text>
</g>
<!-- SupplierPaymentModule&#45;&gt;SupplierPaymentService  -->
<g id="edge4" class="edge">
<title>SupplierPaymentModule&#45;&gt;SupplierPaymentService </title>
<path fill="none" stroke="black" stroke-dasharray="5,2" d="M366.98,-187.11C366.98,-187.11 366.98,-205.99 366.98,-205.99"/>
<polygon fill="black" stroke="black" points="363.48,-205.99 366.98,-215.99 370.48,-205.99 363.48,-205.99"/>
</g>
<!-- SupplierPaymentRepository -->
<g id="node6" class="node">
<title>SupplierPaymentRepository</title>
<ellipse fill="#fdb462" stroke="black" cx="375" cy="-104" rx="119.86" ry="18"/>
<text text-anchor="middle" x="375" y="-99.8" font-family="Times,serif" font-size="14.00">SupplierPaymentRepository</text>
</g>
<!-- SupplierPaymentRepository&#45;&gt;SupplierPaymentModule -->
<g id="edge5" class="edge">
<title>SupplierPaymentRepository&#45;&gt;SupplierPaymentModule</title>
<path fill="none" stroke="black" d="M413,-121.08C413,-121.08 413,-140.9 413,-140.9"/>
<polygon fill="black" stroke="black" points="409.5,-140.9 413,-150.9 416.5,-140.9 409.5,-140.9"/>
</g>
<!-- SupplierPaymentService -->
<g id="node7" class="node">
<title>SupplierPaymentService</title>
<ellipse fill="#fdb462" stroke="black" cx="131" cy="-104" rx="106.52" ry="18"/>
<text text-anchor="middle" x="131" y="-99.8" font-family="Times,serif" font-size="14.00">SupplierPaymentService</text>
</g>
<!-- SupplierPaymentService&#45;&gt;SupplierPaymentModule -->
<g id="edge6" class="edge">
<title>SupplierPaymentService&#45;&gt;SupplierPaymentModule</title>
<path fill="none" stroke="black" d="M131,-122.11C131,-141.34 131,-169 131,-169 131,-169 324.82,-169 324.82,-169"/>
<polygon fill="black" stroke="black" points="324.82,-172.5 334.82,-169 324.82,-165.5 324.82,-172.5"/>
</g>
</g>
</svg>
