<?xml version="1.0" encoding="UTF-8" standalone="no"?>
<!DOCTYPE svg PUBLIC "-//W3C//DTD SVG 1.1//EN"
 "http://www.w3.org/Graphics/SVG/1.1/DTD/svg11.dtd">
<!-- Generated by graphviz version 2.47.0 (20210316.0004)
 -->
<!-- Title: dependencies Pages: 1 -->
<svg width="812pt" height="284pt"
 viewBox="0.00 0.00 812.00 284.00" xmlns="http://www.w3.org/2000/svg" xmlns:xlink="http://www.w3.org/1999/xlink">
<g id="graph0" class="graph" transform="scale(1 1) rotate(0) translate(4 280)">
<title>dependencies</title>
<polygon fill="white" stroke="transparent" points="-4,4 -4,-280 808,-280 808,4 -4,4"/>
<text text-anchor="start" x="381.01" y="-42.4" font-family="Times-12" font-weight="bold" font-size="14.00">Legend</text>
<polygon fill="#ffffb3" stroke="transparent" points="168,-10 168,-30 188,-30 188,-10 168,-10"/>
<text text-anchor="start" x="191.63" y="-15.4" font-family="Times-12" font-size="14.00"> &#160;Declarations</text>
<polygon fill="#8dd3c7" stroke="transparent" points="281,-10 281,-30 301,-30 301,-10 281,-10"/>
<text text-anchor="start" x="304.73" y="-15.4" font-family="Times-12" font-size="14.00"> &#160;Module</text>
<polygon fill="#80b1d3" stroke="transparent" points="367,-10 367,-30 387,-30 387,-10 367,-10"/>
<text text-anchor="start" x="390.78" y="-15.4" font-family="Times-12" font-size="14.00"> &#160;Bootstrap</text>
<polygon fill="#fdb462" stroke="transparent" points="464,-10 464,-30 484,-30 484,-10 464,-10"/>
<text text-anchor="start" x="487.67" y="-15.4" font-family="Times-12" font-size="14.00"> &#160;Providers</text>
<polygon fill="#fb8072" stroke="transparent" points="560,-10 560,-30 580,-30 580,-10 560,-10"/>
<text text-anchor="start" x="583.73" y="-15.4" font-family="Times-12" font-size="14.00"> &#160;Exports</text>
<g id="clust1" class="cluster">
<title>cluster_SellingModule</title>
<polygon fill="none" stroke="black" stroke-dasharray="1,5" points="8,-70 8,-268 796,-268 796,-70 8,-70"/>
</g>
<g id="clust3" class="cluster">
<title>cluster_SellingModule_imports</title>
<polygon fill="none" stroke="black" points="354,-78 354,-130 788,-130 788,-78 354,-78"/>
</g>
<g id="clust4" class="cluster">
<title>cluster_SellingModule_exports</title>
<polygon fill="none" stroke="black" points="344,-208 344,-260 600,-260 600,-208 344,-208"/>
</g>
<g id="clust6" class="cluster">
<title>cluster_SellingModule_providers</title>
<polygon fill="none" stroke="black" points="16,-78 16,-130 346,-130 346,-78 16,-78"/>
</g>
<!-- BotModule -->
<g id="node1" class="node">
<title>BotModule</title>
<polygon fill="#8dd3c7" stroke="black" points="779.78,-122 776.78,-126 755.78,-126 752.78,-122 700.22,-122 700.22,-86 779.78,-86 779.78,-122"/>
<text text-anchor="middle" x="740" y="-99.8" font-family="Times,serif" font-size="14.00">BotModule</text>
</g>
<!-- SellingModule -->
<g id="node5" class="node">
<title>SellingModule</title>
<polygon fill="#8dd3c7" stroke="black" points="516.72,-187 513.72,-191 492.72,-191 489.72,-187 417.28,-187 417.28,-151 516.72,-151 516.72,-187"/>
<text text-anchor="middle" x="467" y="-164.8" font-family="Times,serif" font-size="14.00">SellingModule</text>
</g>
<!-- BotModule&#45;&gt;SellingModule -->
<g id="edge1" class="edge">
<title>BotModule&#45;&gt;SellingModule</title>
<path fill="none" stroke="black" d="M740,-122.28C740,-143.32 740,-175 740,-175 740,-175 526.75,-175 526.75,-175"/>
<polygon fill="black" stroke="black" points="526.76,-171.5 516.75,-175 526.75,-178.5 526.76,-171.5"/>
</g>
<!-- ClientModule -->
<g id="node2" class="node">
<title>ClientModule</title>
<polygon fill="#8dd3c7" stroke="black" points="681.77,-122 678.77,-126 657.77,-126 654.77,-122 588.23,-122 588.23,-86 681.77,-86 681.77,-122"/>
<text text-anchor="middle" x="635" y="-99.8" font-family="Times,serif" font-size="14.00">ClientModule</text>
</g>
<!-- ClientModule&#45;&gt;SellingModule -->
<g id="edge2" class="edge">
<title>ClientModule&#45;&gt;SellingModule</title>
<path fill="none" stroke="black" d="M637.09,-122.02C637.09,-139.37 637.09,-163 637.09,-163 637.09,-163 526.66,-163 526.66,-163"/>
<polygon fill="black" stroke="black" points="526.66,-159.5 516.66,-163 526.66,-166.5 526.66,-159.5"/>
</g>
<!-- ExcelModule -->
<g id="node3" class="node">
<title>ExcelModule</title>
<polygon fill="#8dd3c7" stroke="black" points="569.92,-122 566.92,-126 545.92,-126 542.92,-122 478.08,-122 478.08,-86 569.92,-86 569.92,-122"/>
<text text-anchor="middle" x="524" y="-99.8" font-family="Times,serif" font-size="14.00">ExcelModule</text>
</g>
<!-- ExcelModule&#45;&gt;SellingModule -->
<g id="edge3" class="edge">
<title>ExcelModule&#45;&gt;SellingModule</title>
<path fill="none" stroke="black" d="M497.45,-122.11C497.45,-122.11 497.45,-140.99 497.45,-140.99"/>
<polygon fill="black" stroke="black" points="493.95,-140.99 497.45,-150.99 500.95,-140.99 493.95,-140.99"/>
</g>
<!-- PrismaModule -->
<g id="node4" class="node">
<title>PrismaModule</title>
<polygon fill="#8dd3c7" stroke="black" points="460.43,-122 457.43,-126 436.43,-126 433.43,-122 361.57,-122 361.57,-86 460.43,-86 460.43,-122"/>
<text text-anchor="middle" x="411" y="-99.8" font-family="Times,serif" font-size="14.00">PrismaModule</text>
</g>
<!-- PrismaModule&#45;&gt;SellingModule -->
<g id="edge4" class="edge">
<title>PrismaModule&#45;&gt;SellingModule</title>
<path fill="none" stroke="black" d="M438.8,-122.11C438.8,-122.11 438.8,-140.99 438.8,-140.99"/>
<polygon fill="black" stroke="black" points="435.3,-140.99 438.8,-150.99 442.3,-140.99 435.3,-140.99"/>
</g>
<!-- SellingRepository  -->
<g id="node6" class="node">
<title>SellingRepository </title>
<polygon fill="#fb8072" stroke="black" points="592.11,-252 471.89,-252 471.89,-216 592.11,-216 592.11,-252"/>
<text text-anchor="middle" x="532" y="-229.8" font-family="Times,serif" font-size="14.00">SellingRepository </text>
</g>
<!-- SellingModule&#45;&gt;SellingRepository  -->
<g id="edge5" class="edge">
<title>SellingModule&#45;&gt;SellingRepository </title>
<path fill="none" stroke="black" stroke-dasharray="5,2" d="M494.15,-187.11C494.15,-187.11 494.15,-205.99 494.15,-205.99"/>
<polygon fill="black" stroke="black" points="490.65,-205.99 494.15,-215.99 497.65,-205.99 490.65,-205.99"/>
</g>
<!-- SellingService  -->
<g id="node7" class="node">
<title>SellingService </title>
<polygon fill="#fb8072" stroke="black" points="453.65,-252 352.35,-252 352.35,-216 453.65,-216 453.65,-252"/>
<text text-anchor="middle" x="403" y="-229.8" font-family="Times,serif" font-size="14.00">SellingService </text>
</g>
<!-- SellingModule&#45;&gt;SellingService  -->
<g id="edge6" class="edge">
<title>SellingModule&#45;&gt;SellingService </title>
<path fill="none" stroke="black" stroke-dasharray="5,2" d="M435.48,-187.11C435.48,-187.11 435.48,-205.99 435.48,-205.99"/>
<polygon fill="black" stroke="black" points="431.98,-205.99 435.48,-215.99 438.98,-205.99 431.98,-205.99"/>
</g>
<!-- SellingRepository -->
<g id="node8" class="node">
<title>SellingRepository</title>
<ellipse fill="#fdb462" stroke="black" cx="257" cy="-104" rx="80.56" ry="18"/>
<text text-anchor="middle" x="257" y="-99.8" font-family="Times,serif" font-size="14.00">SellingRepository</text>
</g>
<!-- SellingRepository&#45;&gt;SellingModule -->
<g id="edge7" class="edge">
<title>SellingRepository&#45;&gt;SellingModule</title>
<path fill="none" stroke="black" d="M257,-122.02C257,-139.37 257,-163 257,-163 257,-163 407.23,-163 407.23,-163"/>
<polygon fill="black" stroke="black" points="407.23,-166.5 417.23,-163 407.23,-159.5 407.23,-166.5"/>
</g>
<!-- SellingService -->
<g id="node9" class="node">
<title>SellingService</title>
<ellipse fill="#fdb462" stroke="black" cx="91" cy="-104" rx="67.21" ry="18"/>
<text text-anchor="middle" x="91" y="-99.8" font-family="Times,serif" font-size="14.00">SellingService</text>
</g>
<!-- SellingService&#45;&gt;SellingModule -->
<g id="edge8" class="edge">
<title>SellingService&#45;&gt;SellingModule</title>
<path fill="none" stroke="black" d="M91,-122.28C91,-143.32 91,-175 91,-175 91,-175 407.07,-175 407.07,-175"/>
<polygon fill="black" stroke="black" points="407.07,-178.5 417.07,-175 407.07,-171.5 407.07,-178.5"/>
</g>
</g>
</svg>
