<?xml version="1.0" encoding="UTF-8" standalone="no"?>
<!DOCTYPE svg PUBLIC "-//W3C//DTD SVG 1.1//EN"
 "http://www.w3.org/Graphics/SVG/1.1/DTD/svg11.dtd">
<!-- Generated by graphviz version 2.47.0 (20210316.0004)
 -->
<!-- Title: dependencies Pages: 1 -->
<svg width="604pt" height="284pt"
 viewBox="0.00 0.00 604.00 284.00" xmlns="http://www.w3.org/2000/svg" xmlns:xlink="http://www.w3.org/1999/xlink">
<g id="graph0" class="graph" transform="scale(1 1) rotate(0) translate(4 280)">
<title>dependencies</title>
<polygon fill="white" stroke="transparent" points="-4,4 -4,-280 600,-280 600,4 -4,4"/>
<text text-anchor="start" x="277.01" y="-42.4" font-family="Times-12" font-weight="bold" font-size="14.00">Legend</text>
<polygon fill="#ffffb3" stroke="transparent" points="64,-10 64,-30 84,-30 84,-10 64,-10"/>
<text text-anchor="start" x="87.63" y="-15.4" font-family="Times-12" font-size="14.00"> &#160;Declarations</text>
<polygon fill="#8dd3c7" stroke="transparent" points="177,-10 177,-30 197,-30 197,-10 177,-10"/>
<text text-anchor="start" x="200.73" y="-15.4" font-family="Times-12" font-size="14.00"> &#160;Module</text>
<polygon fill="#80b1d3" stroke="transparent" points="263,-10 263,-30 283,-30 283,-10 263,-10"/>
<text text-anchor="start" x="286.78" y="-15.4" font-family="Times-12" font-size="14.00"> &#160;Bootstrap</text>
<polygon fill="#fdb462" stroke="transparent" points="360,-10 360,-30 380,-30 380,-10 360,-10"/>
<text text-anchor="start" x="383.67" y="-15.4" font-family="Times-12" font-size="14.00"> &#160;Providers</text>
<polygon fill="#fb8072" stroke="transparent" points="456,-10 456,-30 476,-30 476,-10 456,-10"/>
<text text-anchor="start" x="479.73" y="-15.4" font-family="Times-12" font-size="14.00"> &#160;Exports</text>
<g id="clust1" class="cluster">
<title>cluster_ArrivalModule</title>
<polygon fill="none" stroke="black" stroke-dasharray="1,5" points="8,-70 8,-268 588,-268 588,-70 8,-70"/>
</g>
<g id="clust4" class="cluster">
<title>cluster_ArrivalModule_exports</title>
<polygon fill="none" stroke="black" points="131,-208 131,-260 389,-260 389,-208 131,-208"/>
</g>
<g id="clust6" class="cluster">
<title>cluster_ArrivalModule_providers</title>
<polygon fill="none" stroke="black" points="248,-78 248,-130 580,-130 580,-78 248,-78"/>
</g>
<g id="clust3" class="cluster">
<title>cluster_ArrivalModule_imports</title>
<polygon fill="none" stroke="black" points="16,-78 16,-130 240,-130 240,-78 16,-78"/>
</g>
<!-- ExcelModule -->
<g id="node1" class="node">
<title>ExcelModule</title>
<polygon fill="#8dd3c7" stroke="black" points="231.92,-122 228.92,-126 207.92,-126 204.92,-122 140.08,-122 140.08,-86 231.92,-86 231.92,-122"/>
<text text-anchor="middle" x="186" y="-99.8" font-family="Times,serif" font-size="14.00">ExcelModule</text>
</g>
<!-- ArrivalModule -->
<g id="node3" class="node">
<title>ArrivalModule</title>
<polygon fill="#8dd3c7" stroke="black" points="304.97,-187 301.97,-191 280.97,-191 277.97,-187 205.03,-187 205.03,-151 304.97,-151 304.97,-187"/>
<text text-anchor="middle" x="255" y="-164.8" font-family="Times,serif" font-size="14.00">ArrivalModule</text>
</g>
<!-- ExcelModule&#45;&gt;ArrivalModule -->
<g id="edge1" class="edge">
<title>ExcelModule&#45;&gt;ArrivalModule</title>
<path fill="none" stroke="black" d="M218.36,-122.11C218.36,-122.11 218.36,-140.99 218.36,-140.99"/>
<polygon fill="black" stroke="black" points="214.86,-140.99 218.36,-150.99 221.86,-140.99 214.86,-140.99"/>
</g>
<!-- PrismaModule -->
<g id="node2" class="node">
<title>PrismaModule</title>
<polygon fill="#8dd3c7" stroke="black" points="122.43,-122 119.43,-126 98.43,-126 95.43,-122 23.57,-122 23.57,-86 122.43,-86 122.43,-122"/>
<text text-anchor="middle" x="73" y="-99.8" font-family="Times,serif" font-size="14.00">PrismaModule</text>
</g>
<!-- PrismaModule&#45;&gt;ArrivalModule -->
<g id="edge2" class="edge">
<title>PrismaModule&#45;&gt;ArrivalModule</title>
<path fill="none" stroke="black" d="M73,-122.11C73,-141.34 73,-169 73,-169 73,-169 194.79,-169 194.79,-169"/>
<polygon fill="black" stroke="black" points="194.79,-172.5 204.79,-169 194.79,-165.5 194.79,-172.5"/>
</g>
<!-- ArrivalRepository  -->
<g id="node4" class="node">
<title>ArrivalRepository </title>
<polygon fill="#fb8072" stroke="black" points="380.86,-252 259.14,-252 259.14,-216 380.86,-216 380.86,-252"/>
<text text-anchor="middle" x="320" y="-229.8" font-family="Times,serif" font-size="14.00">ArrivalRepository </text>
</g>
<!-- ArrivalModule&#45;&gt;ArrivalRepository  -->
<g id="edge3" class="edge">
<title>ArrivalModule&#45;&gt;ArrivalRepository </title>
<path fill="none" stroke="black" stroke-dasharray="5,2" d="M282.15,-187.11C282.15,-187.11 282.15,-205.99 282.15,-205.99"/>
<polygon fill="black" stroke="black" points="278.65,-205.99 282.15,-215.99 285.65,-205.99 278.65,-205.99"/>
</g>
<!-- ArrivalService  -->
<g id="node5" class="node">
<title>ArrivalService </title>
<polygon fill="#fb8072" stroke="black" points="240.9,-252 139.1,-252 139.1,-216 240.9,-216 240.9,-252"/>
<text text-anchor="middle" x="190" y="-229.8" font-family="Times,serif" font-size="14.00">ArrivalService </text>
</g>
<!-- ArrivalModule&#45;&gt;ArrivalService  -->
<g id="edge4" class="edge">
<title>ArrivalModule&#45;&gt;ArrivalService </title>
<path fill="none" stroke="black" stroke-dasharray="5,2" d="M222.98,-187.11C222.98,-187.11 222.98,-205.99 222.98,-205.99"/>
<polygon fill="black" stroke="black" points="219.48,-205.99 222.98,-215.99 226.48,-205.99 219.48,-205.99"/>
</g>
<!-- ArrivalRepository -->
<g id="node6" class="node">
<title>ArrivalRepository</title>
<ellipse fill="#fdb462" stroke="black" cx="491" cy="-104" rx="81.1" ry="18"/>
<text text-anchor="middle" x="491" y="-99.8" font-family="Times,serif" font-size="14.00">ArrivalRepository</text>
</g>
<!-- ArrivalRepository&#45;&gt;ArrivalModule -->
<g id="edge5" class="edge">
<title>ArrivalRepository&#45;&gt;ArrivalModule</title>
<path fill="none" stroke="black" d="M491,-122.11C491,-141.34 491,-169 491,-169 491,-169 315.05,-169 315.05,-169"/>
<polygon fill="black" stroke="black" points="315.05,-165.5 305.05,-169 315.05,-172.5 315.05,-165.5"/>
</g>
<!-- ArrivalService -->
<g id="node7" class="node">
<title>ArrivalService</title>
<ellipse fill="#fdb462" stroke="black" cx="324" cy="-104" rx="67.75" ry="18"/>
<text text-anchor="middle" x="324" y="-99.8" font-family="Times,serif" font-size="14.00">ArrivalService</text>
</g>
<!-- ArrivalService&#45;&gt;ArrivalModule -->
<g id="edge6" class="edge">
<title>ArrivalService&#45;&gt;ArrivalModule</title>
<path fill="none" stroke="black" d="M280.56,-118.1C280.56,-118.1 280.56,-140.72 280.56,-140.72"/>
<polygon fill="black" stroke="black" points="277.06,-140.72 280.56,-150.72 284.06,-140.72 277.06,-140.72"/>
</g>
</g>
</svg>
