<?xml version="1.0" encoding="UTF-8" standalone="no"?>
<!DOCTYPE svg PUBLIC "-//W3C//DTD SVG 1.1//EN"
 "http://www.w3.org/Graphics/SVG/1.1/DTD/svg11.dtd">
<!-- Generated by graphviz version 2.47.0 (20210316.0004)
 -->
<!-- Title: dependencies Pages: 1 -->
<svg width="554pt" height="284pt"
 viewBox="0.00 0.00 554.00 284.00" xmlns="http://www.w3.org/2000/svg" xmlns:xlink="http://www.w3.org/1999/xlink">
<g id="graph0" class="graph" transform="scale(1 1) rotate(0) translate(4 280)">
<title>dependencies</title>
<polygon fill="white" stroke="transparent" points="-4,4 -4,-280 550,-280 550,4 -4,4"/>
<text text-anchor="start" x="252.01" y="-42.4" font-family="Times-12" font-weight="bold" font-size="14.00">Legend</text>
<polygon fill="#ffffb3" stroke="transparent" points="39,-10 39,-30 59,-30 59,-10 39,-10"/>
<text text-anchor="start" x="62.63" y="-15.4" font-family="Times-12" font-size="14.00"> &#160;Declarations</text>
<polygon fill="#8dd3c7" stroke="transparent" points="152,-10 152,-30 172,-30 172,-10 152,-10"/>
<text text-anchor="start" x="175.73" y="-15.4" font-family="Times-12" font-size="14.00"> &#160;Module</text>
<polygon fill="#80b1d3" stroke="transparent" points="238,-10 238,-30 258,-30 258,-10 238,-10"/>
<text text-anchor="start" x="261.78" y="-15.4" font-family="Times-12" font-size="14.00"> &#160;Bootstrap</text>
<polygon fill="#fdb462" stroke="transparent" points="335,-10 335,-30 355,-30 355,-10 335,-10"/>
<text text-anchor="start" x="358.67" y="-15.4" font-family="Times-12" font-size="14.00"> &#160;Providers</text>
<polygon fill="#fb8072" stroke="transparent" points="431,-10 431,-30 451,-30 451,-10 431,-10"/>
<text text-anchor="start" x="454.73" y="-15.4" font-family="Times-12" font-size="14.00"> &#160;Exports</text>
<g id="clust1" class="cluster">
<title>cluster_PermissionModule</title>
<polygon fill="none" stroke="black" stroke-dasharray="1,5" points="8,-70 8,-268 538,-268 538,-70 8,-70"/>
</g>
<g id="clust3" class="cluster">
<title>cluster_PermissionModule_imports</title>
<polygon fill="none" stroke="black" points="416,-78 416,-130 530,-130 530,-78 416,-78"/>
</g>
<g id="clust6" class="cluster">
<title>cluster_PermissionModule_providers</title>
<polygon fill="none" stroke="black" points="16,-78 16,-130 408,-130 408,-78 16,-78"/>
</g>
<g id="clust4" class="cluster">
<title>cluster_PermissionModule_exports</title>
<polygon fill="none" stroke="black" points="156,-208 156,-260 457,-260 457,-208 156,-208"/>
</g>
<!-- PrismaModule -->
<g id="node1" class="node">
<title>PrismaModule</title>
<polygon fill="#8dd3c7" stroke="black" points="522.43,-122 519.43,-126 498.43,-126 495.43,-122 423.57,-122 423.57,-86 522.43,-86 522.43,-122"/>
<text text-anchor="middle" x="473" y="-99.8" font-family="Times,serif" font-size="14.00">PrismaModule</text>
</g>
<!-- PermissionModule -->
<g id="node2" class="node">
<title>PermissionModule</title>
<polygon fill="#8dd3c7" stroke="black" points="364.77,-187 361.77,-191 340.77,-191 337.77,-187 243.23,-187 243.23,-151 364.77,-151 364.77,-187"/>
<text text-anchor="middle" x="304" y="-164.8" font-family="Times,serif" font-size="14.00">PermissionModule</text>
</g>
<!-- PrismaModule&#45;&gt;PermissionModule -->
<g id="edge1" class="edge">
<title>PrismaModule&#45;&gt;PermissionModule</title>
<path fill="none" stroke="black" d="M436.18,-122.11C436.18,-141.34 436.18,-169 436.18,-169 436.18,-169 375.06,-169 375.06,-169"/>
<polygon fill="black" stroke="black" points="375.06,-165.5 365.06,-169 375.06,-172.5 375.06,-165.5"/>
</g>
<!-- PermissionRepository  -->
<g id="node3" class="node">
<title>PermissionRepository </title>
<polygon fill="#fb8072" stroke="black" points="448.66,-252 305.34,-252 305.34,-216 448.66,-216 448.66,-252"/>
<text text-anchor="middle" x="377" y="-229.8" font-family="Times,serif" font-size="14.00">PermissionRepository </text>
</g>
<!-- PermissionModule&#45;&gt;PermissionRepository  -->
<g id="edge2" class="edge">
<title>PermissionModule&#45;&gt;PermissionRepository </title>
<path fill="none" stroke="black" stroke-dasharray="5,2" d="M335.15,-187.11C335.15,-187.11 335.15,-205.99 335.15,-205.99"/>
<polygon fill="black" stroke="black" points="331.65,-205.99 335.15,-215.99 338.65,-205.99 331.65,-205.99"/>
</g>
<!-- PermissionService  -->
<g id="node4" class="node">
<title>PermissionService </title>
<polygon fill="#fb8072" stroke="black" points="287.7,-252 164.3,-252 164.3,-216 287.7,-216 287.7,-252"/>
<text text-anchor="middle" x="226" y="-229.8" font-family="Times,serif" font-size="14.00">PermissionService </text>
</g>
<!-- PermissionModule&#45;&gt;PermissionService  -->
<g id="edge3" class="edge">
<title>PermissionModule&#45;&gt;PermissionService </title>
<path fill="none" stroke="black" stroke-dasharray="5,2" d="M265.48,-187.11C265.48,-187.11 265.48,-205.99 265.48,-205.99"/>
<polygon fill="black" stroke="black" points="261.98,-205.99 265.48,-215.99 268.98,-205.99 261.98,-205.99"/>
</g>
<!-- PermissionRepository -->
<g id="node5" class="node">
<title>PermissionRepository</title>
<ellipse fill="#fdb462" stroke="black" cx="304" cy="-104" rx="96.17" ry="18"/>
<text text-anchor="middle" x="304" y="-99.8" font-family="Times,serif" font-size="14.00">PermissionRepository</text>
</g>
<!-- PermissionRepository&#45;&gt;PermissionModule -->
<g id="edge4" class="edge">
<title>PermissionRepository&#45;&gt;PermissionModule</title>
<path fill="none" stroke="black" d="M304,-122.11C304,-122.11 304,-140.99 304,-140.99"/>
<polygon fill="black" stroke="black" points="300.5,-140.99 304,-150.99 307.5,-140.99 300.5,-140.99"/>
</g>
<!-- PermissionService -->
<g id="node6" class="node">
<title>PermissionService</title>
<ellipse fill="#fdb462" stroke="black" cx="107" cy="-104" rx="82.82" ry="18"/>
<text text-anchor="middle" x="107" y="-99.8" font-family="Times,serif" font-size="14.00">PermissionService</text>
</g>
<!-- PermissionService&#45;&gt;PermissionModule -->
<g id="edge5" class="edge">
<title>PermissionService&#45;&gt;PermissionModule</title>
<path fill="none" stroke="black" d="M177.03,-113.87C177.03,-132.06 177.03,-169 177.03,-169 177.03,-169 233.12,-169 233.12,-169"/>
<polygon fill="black" stroke="black" points="233.12,-172.5 243.12,-169 233.12,-165.5 233.12,-172.5"/>
</g>
</g>
</svg>
