<?xml version="1.0" encoding="UTF-8" standalone="no"?>
<!DOCTYPE svg PUBLIC "-//W3C//DTD SVG 1.1//EN"
 "http://www.w3.org/Graphics/SVG/1.1/DTD/svg11.dtd">
<!-- Generated by graphviz version 2.47.0 (20210316.0004)
 -->
<!-- Title: dependencies Pages: 1 -->
<svg width="507pt" height="284pt"
 viewBox="0.00 0.00 507.00 284.00" xmlns="http://www.w3.org/2000/svg" xmlns:xlink="http://www.w3.org/1999/xlink">
<g id="graph0" class="graph" transform="scale(1 1) rotate(0) translate(4 280)">
<title>dependencies</title>
<polygon fill="white" stroke="transparent" points="-4,4 -4,-280 503,-280 503,4 -4,4"/>
<text text-anchor="start" x="228.51" y="-42.4" font-family="Times-12" font-weight="bold" font-size="14.00">Legend</text>
<polygon fill="#ffffb3" stroke="transparent" points="15.5,-10 15.5,-30 35.5,-30 35.5,-10 15.5,-10"/>
<text text-anchor="start" x="39.13" y="-15.4" font-family="Times-12" font-size="14.00"> &#160;Declarations</text>
<polygon fill="#8dd3c7" stroke="transparent" points="128.5,-10 128.5,-30 148.5,-30 148.5,-10 128.5,-10"/>
<text text-anchor="start" x="152.23" y="-15.4" font-family="Times-12" font-size="14.00"> &#160;Module</text>
<polygon fill="#80b1d3" stroke="transparent" points="214.5,-10 214.5,-30 234.5,-30 234.5,-10 214.5,-10"/>
<text text-anchor="start" x="238.28" y="-15.4" font-family="Times-12" font-size="14.00"> &#160;Bootstrap</text>
<polygon fill="#fdb462" stroke="transparent" points="311.5,-10 311.5,-30 331.5,-30 331.5,-10 311.5,-10"/>
<text text-anchor="start" x="335.17" y="-15.4" font-family="Times-12" font-size="14.00"> &#160;Providers</text>
<polygon fill="#fb8072" stroke="transparent" points="407.5,-10 407.5,-30 427.5,-30 427.5,-10 407.5,-10"/>
<text text-anchor="start" x="431.23" y="-15.4" font-family="Times-12" font-size="14.00"> &#160;Exports</text>
<g id="clust1" class="cluster">
<title>cluster_BotModule</title>
<polygon fill="none" stroke="black" stroke-dasharray="1,5" points="8,-70 8,-268 491,-268 491,-70 8,-70"/>
</g>
<g id="clust4" class="cluster">
<title>cluster_BotModule_exports</title>
<polygon fill="none" stroke="black" points="216,-208 216,-260 314,-260 314,-208 216,-208"/>
</g>
<g id="clust3" class="cluster">
<title>cluster_BotModule_imports</title>
<polygon fill="none" stroke="black" points="272,-78 272,-130 483,-130 483,-78 272,-78"/>
</g>
<g id="clust6" class="cluster">
<title>cluster_BotModule_providers</title>
<polygon fill="none" stroke="black" points="16,-78 16,-130 264,-130 264,-78 16,-78"/>
</g>
<!-- PdfModule -->
<g id="node1" class="node">
<title>PdfModule</title>
<polygon fill="#8dd3c7" stroke="black" points="475.49,-122 472.49,-126 451.49,-126 448.49,-122 396.51,-122 396.51,-86 475.49,-86 475.49,-122"/>
<text text-anchor="middle" x="436" y="-99.8" font-family="Times,serif" font-size="14.00">PdfModule</text>
</g>
<!-- BotModule -->
<g id="node3" class="node">
<title>BotModule</title>
<polygon fill="#8dd3c7" stroke="black" points="304.78,-187 301.78,-191 280.78,-191 277.78,-187 225.22,-187 225.22,-151 304.78,-151 304.78,-187"/>
<text text-anchor="middle" x="265" y="-164.8" font-family="Times,serif" font-size="14.00">BotModule</text>
</g>
<!-- PdfModule&#45;&gt;BotModule -->
<g id="edge1" class="edge">
<title>PdfModule&#45;&gt;BotModule</title>
<path fill="none" stroke="black" d="M436,-122.11C436,-141.34 436,-169 436,-169 436,-169 315.09,-169 315.09,-169"/>
<polygon fill="black" stroke="black" points="315.09,-165.5 305.09,-169 315.09,-172.5 315.09,-165.5"/>
</g>
<!-- PrismaModule -->
<g id="node2" class="node">
<title>PrismaModule</title>
<polygon fill="#8dd3c7" stroke="black" points="378.43,-122 375.43,-126 354.43,-126 351.43,-122 279.57,-122 279.57,-86 378.43,-86 378.43,-122"/>
<text text-anchor="middle" x="329" y="-99.8" font-family="Times,serif" font-size="14.00">PrismaModule</text>
</g>
<!-- PrismaModule&#45;&gt;BotModule -->
<g id="edge2" class="edge">
<title>PrismaModule&#45;&gt;BotModule</title>
<path fill="none" stroke="black" d="M292.34,-122.11C292.34,-122.11 292.34,-140.99 292.34,-140.99"/>
<polygon fill="black" stroke="black" points="288.84,-140.99 292.34,-150.99 295.84,-140.99 288.84,-140.99"/>
</g>
<!-- BotService  -->
<g id="node4" class="node">
<title>BotService </title>
<polygon fill="#fb8072" stroke="black" points="305.71,-252 224.29,-252 224.29,-216 305.71,-216 305.71,-252"/>
<text text-anchor="middle" x="265" y="-229.8" font-family="Times,serif" font-size="14.00">BotService </text>
</g>
<!-- BotModule&#45;&gt;BotService  -->
<g id="edge3" class="edge">
<title>BotModule&#45;&gt;BotService </title>
<path fill="none" stroke="black" stroke-dasharray="5,2" d="M265,-187.11C265,-187.11 265,-205.99 265,-205.99"/>
<polygon fill="black" stroke="black" points="261.5,-205.99 265,-215.99 268.5,-205.99 261.5,-205.99"/>
</g>
<!-- BotService -->
<g id="node5" class="node">
<title>BotService</title>
<ellipse fill="#fdb462" stroke="black" cx="202" cy="-104" rx="53.89" ry="18"/>
<text text-anchor="middle" x="202" y="-99.8" font-family="Times,serif" font-size="14.00">BotService</text>
</g>
<!-- BotService&#45;&gt;BotModule -->
<g id="edge4" class="edge">
<title>BotService&#45;&gt;BotModule</title>
<path fill="none" stroke="black" d="M240.53,-116.84C240.53,-116.84 240.53,-140.52 240.53,-140.52"/>
<polygon fill="black" stroke="black" points="237.03,-140.52 240.53,-150.52 244.03,-140.52 237.03,-140.52"/>
</g>
<!-- BotUpdate -->
<g id="node6" class="node">
<title>BotUpdate</title>
<ellipse fill="#fdb462" stroke="black" cx="77" cy="-104" rx="52.75" ry="18"/>
<text text-anchor="middle" x="77" y="-99.8" font-family="Times,serif" font-size="14.00">BotUpdate</text>
</g>
<!-- BotUpdate&#45;&gt;BotModule -->
<g id="edge5" class="edge">
<title>BotUpdate&#45;&gt;BotModule</title>
<path fill="none" stroke="black" d="M77,-122.11C77,-141.34 77,-169 77,-169 77,-169 215.13,-169 215.13,-169"/>
<polygon fill="black" stroke="black" points="215.13,-172.5 225.13,-169 215.13,-165.5 215.13,-172.5"/>
</g>
</g>
</svg>
