<?xml version="1.0" encoding="UTF-8" standalone="no"?>
<!DOCTYPE svg PUBLIC "-//W3C//DTD SVG 1.1//EN"
 "http://www.w3.org/Graphics/SVG/1.1/DTD/svg11.dtd">
<!-- Generated by graphviz version 2.47.0 (20210316.0004)
 -->
<!-- Title: dependencies Pages: 1 -->
<svg width="504pt" height="211pt"
 viewBox="0.00 0.00 504.00 211.00" xmlns="http://www.w3.org/2000/svg" xmlns:xlink="http://www.w3.org/1999/xlink">
<g id="graph0" class="graph" transform="scale(1 1) rotate(0) translate(4 207)">
<title>dependencies</title>
<polygon fill="white" stroke="transparent" points="-4,4 -4,-207 500,-207 500,4 -4,4"/>
<text text-anchor="start" x="227.01" y="-42.4" font-family="Times-12" font-weight="bold" font-size="14.00">Legend</text>
<polygon fill="#ffffb3" stroke="transparent" points="14,-10 14,-30 34,-30 34,-10 14,-10"/>
<text text-anchor="start" x="37.63" y="-15.4" font-family="Times-12" font-size="14.00"> &#160;Declarations</text>
<polygon fill="#8dd3c7" stroke="transparent" points="127,-10 127,-30 147,-30 147,-10 127,-10"/>
<text text-anchor="start" x="150.73" y="-15.4" font-family="Times-12" font-size="14.00"> &#160;Module</text>
<polygon fill="#80b1d3" stroke="transparent" points="213,-10 213,-30 233,-30 233,-10 213,-10"/>
<text text-anchor="start" x="236.78" y="-15.4" font-family="Times-12" font-size="14.00"> &#160;Bootstrap</text>
<polygon fill="#fdb462" stroke="transparent" points="310,-10 310,-30 330,-30 330,-10 310,-10"/>
<text text-anchor="start" x="333.67" y="-15.4" font-family="Times-12" font-size="14.00"> &#160;Providers</text>
<polygon fill="#fb8072" stroke="transparent" points="406,-10 406,-30 426,-30 426,-10 406,-10"/>
<text text-anchor="start" x="429.73" y="-15.4" font-family="Times-12" font-size="14.00"> &#160;Exports</text>
<g id="clust1" class="cluster">
<title>cluster_AppModule</title>
<polygon fill="none" stroke="black" stroke-dasharray="1,5" points="19.5,-70 19.5,-195 476.5,-195 476.5,-70 19.5,-70"/>
</g>
<g id="clust3" class="cluster">
<title>cluster_AppModule_imports</title>
<polygon fill="none" stroke="black" points="27.5,-78 27.5,-130 468.5,-130 468.5,-78 27.5,-78"/>
</g>
<!-- ActionModule -->
<g id="node1" class="node">
<title>ActionModule</title>
<polygon fill="#8dd3c7" stroke="black" points="460.15,-122 457.15,-126 436.15,-126 433.15,-122 362.85,-122 362.85,-86 460.15,-86 460.15,-122"/>
<text text-anchor="middle" x="411.5" y="-99.8" font-family="Times,serif" font-size="14.00">ActionModule</text>
</g>
<!-- AppModule -->
<g id="node5" class="node">
<title>AppModule</title>
<polygon fill="#8dd3c7" stroke="black" points="286.16,-187 283.16,-191 262.16,-191 259.16,-187 202.84,-187 202.84,-151 286.16,-151 286.16,-187"/>
<text text-anchor="middle" x="244.5" y="-164.8" font-family="Times,serif" font-size="14.00">AppModule</text>
</g>
<!-- ActionModule&#45;&gt;AppModule -->
<g id="edge1" class="edge">
<title>ActionModule&#45;&gt;AppModule</title>
<path fill="none" stroke="black" d="M411.5,-122.11C411.5,-141.34 411.5,-169 411.5,-169 411.5,-169 296.21,-169 296.21,-169"/>
<polygon fill="black" stroke="black" points="296.21,-165.5 286.21,-169 296.21,-172.5 296.21,-165.5"/>
</g>
<!-- AuthModule -->
<g id="node2" class="node">
<title>AuthModule</title>
<polygon fill="#8dd3c7" stroke="black" points="344.05,-122 341.05,-126 320.05,-126 317.05,-122 256.95,-122 256.95,-86 344.05,-86 344.05,-122"/>
<text text-anchor="middle" x="300.5" y="-99.8" font-family="Times,serif" font-size="14.00">AuthModule</text>
</g>
<!-- AuthModule&#45;&gt;AppModule -->
<g id="edge2" class="edge">
<title>AuthModule&#45;&gt;AppModule</title>
<path fill="none" stroke="black" d="M271.53,-122.11C271.53,-122.11 271.53,-140.99 271.53,-140.99"/>
<polygon fill="black" stroke="black" points="268.03,-140.99 271.53,-150.99 275.03,-140.99 268.03,-140.99"/>
</g>
<!-- PrismaModule -->
<g id="node3" class="node">
<title>PrismaModule</title>
<polygon fill="#8dd3c7" stroke="black" points="238.93,-122 235.93,-126 214.93,-126 211.93,-122 140.07,-122 140.07,-86 238.93,-86 238.93,-122"/>
<text text-anchor="middle" x="189.5" y="-99.8" font-family="Times,serif" font-size="14.00">PrismaModule</text>
</g>
<!-- PrismaModule&#45;&gt;AppModule -->
<g id="edge3" class="edge">
<title>PrismaModule&#45;&gt;AppModule</title>
<path fill="none" stroke="black" d="M220.69,-122.11C220.69,-122.11 220.69,-140.99 220.69,-140.99"/>
<polygon fill="black" stroke="black" points="217.19,-140.99 220.69,-150.99 224.19,-140.99 217.19,-140.99"/>
</g>
<!-- StaffModule -->
<g id="node4" class="node">
<title>StaffModule</title>
<polygon fill="#8dd3c7" stroke="black" points="121.76,-122 118.76,-126 97.76,-126 94.76,-122 35.24,-122 35.24,-86 121.76,-86 121.76,-122"/>
<text text-anchor="middle" x="78.5" y="-99.8" font-family="Times,serif" font-size="14.00">StaffModule</text>
</g>
<!-- StaffModule&#45;&gt;AppModule -->
<g id="edge4" class="edge">
<title>StaffModule&#45;&gt;AppModule</title>
<path fill="none" stroke="black" d="M78.5,-122.11C78.5,-141.34 78.5,-169 78.5,-169 78.5,-169 192.61,-169 192.61,-169"/>
<polygon fill="black" stroke="black" points="192.61,-172.5 202.61,-169 192.61,-165.5 192.61,-172.5"/>
</g>
</g>
</svg>
