<?xml version="1.0" encoding="UTF-8" standalone="no"?>
<!DOCTYPE svg PUBLIC "-//W3C//DTD SVG 1.1//EN"
 "http://www.w3.org/Graphics/SVG/1.1/DTD/svg11.dtd">
<!-- Generated by graphviz version 2.47.0 (20210316.0004)
 -->
<!-- Title: dependencies Pages: 1 -->
<svg width="820pt" height="284pt"
 viewBox="0.00 0.00 820.00 284.00" xmlns="http://www.w3.org/2000/svg" xmlns:xlink="http://www.w3.org/1999/xlink">
<g id="graph0" class="graph" transform="scale(1 1) rotate(0) translate(4 280)">
<title>dependencies</title>
<polygon fill="white" stroke="transparent" points="-4,4 -4,-280 816,-280 816,4 -4,4"/>
<text text-anchor="start" x="385.01" y="-42.4" font-family="Times-12" font-weight="bold" font-size="14.00">Legend</text>
<polygon fill="#ffffb3" stroke="transparent" points="172,-10 172,-30 192,-30 192,-10 172,-10"/>
<text text-anchor="start" x="195.63" y="-15.4" font-family="Times-12" font-size="14.00"> &#160;Declarations</text>
<polygon fill="#8dd3c7" stroke="transparent" points="285,-10 285,-30 305,-30 305,-10 285,-10"/>
<text text-anchor="start" x="308.73" y="-15.4" font-family="Times-12" font-size="14.00"> &#160;Module</text>
<polygon fill="#80b1d3" stroke="transparent" points="371,-10 371,-30 391,-30 391,-10 371,-10"/>
<text text-anchor="start" x="394.78" y="-15.4" font-family="Times-12" font-size="14.00"> &#160;Bootstrap</text>
<polygon fill="#fdb462" stroke="transparent" points="468,-10 468,-30 488,-30 488,-10 468,-10"/>
<text text-anchor="start" x="491.67" y="-15.4" font-family="Times-12" font-size="14.00"> &#160;Providers</text>
<polygon fill="#fb8072" stroke="transparent" points="564,-10 564,-30 584,-30 584,-10 564,-10"/>
<text text-anchor="start" x="587.73" y="-15.4" font-family="Times-12" font-size="14.00"> &#160;Exports</text>
<g id="clust1" class="cluster">
<title>cluster_ClientPaymentModule</title>
<polygon fill="none" stroke="black" stroke-dasharray="1,5" points="8,-70 8,-268 804,-268 804,-70 8,-70"/>
</g>
<g id="clust6" class="cluster">
<title>cluster_ClientPaymentModule_providers</title>
<polygon fill="none" stroke="black" points="346,-78 346,-130 796,-130 796,-78 346,-78"/>
</g>
<g id="clust4" class="cluster">
<title>cluster_ClientPaymentModule_exports</title>
<polygon fill="none" stroke="black" points="124,-208 124,-260 466,-260 466,-208 124,-208"/>
</g>
<g id="clust3" class="cluster">
<title>cluster_ClientPaymentModule_imports</title>
<polygon fill="none" stroke="black" points="16,-78 16,-130 338,-130 338,-78 16,-78"/>
</g>
<!-- BotModule -->
<g id="node1" class="node">
<title>BotModule</title>
<polygon fill="#8dd3c7" stroke="black" points="329.78,-122 326.78,-126 305.78,-126 302.78,-122 250.22,-122 250.22,-86 329.78,-86 329.78,-122"/>
<text text-anchor="middle" x="290" y="-99.8" font-family="Times,serif" font-size="14.00">BotModule</text>
</g>
<!-- ClientPaymentModule -->
<g id="node4" class="node">
<title>ClientPaymentModule</title>
<polygon fill="#8dd3c7" stroke="black" points="361.27,-187 358.27,-191 337.27,-191 334.27,-187 218.73,-187 218.73,-151 361.27,-151 361.27,-187"/>
<text text-anchor="middle" x="290" y="-164.8" font-family="Times,serif" font-size="14.00">ClientPaymentModule</text>
</g>
<!-- BotModule&#45;&gt;ClientPaymentModule -->
<g id="edge1" class="edge">
<title>BotModule&#45;&gt;ClientPaymentModule</title>
<path fill="none" stroke="black" d="M290,-122.11C290,-122.11 290,-140.99 290,-140.99"/>
<polygon fill="black" stroke="black" points="286.5,-140.99 290,-150.99 293.5,-140.99 286.5,-140.99"/>
</g>
<!-- ExcelModule -->
<g id="node2" class="node">
<title>ExcelModule</title>
<polygon fill="#8dd3c7" stroke="black" points="231.92,-122 228.92,-126 207.92,-126 204.92,-122 140.08,-122 140.08,-86 231.92,-86 231.92,-122"/>
<text text-anchor="middle" x="186" y="-99.8" font-family="Times,serif" font-size="14.00">ExcelModule</text>
</g>
<!-- ExcelModule&#45;&gt;ClientPaymentModule -->
<g id="edge2" class="edge">
<title>ExcelModule&#45;&gt;ClientPaymentModule</title>
<path fill="none" stroke="black" d="M225.16,-122.11C225.16,-122.11 225.16,-140.99 225.16,-140.99"/>
<polygon fill="black" stroke="black" points="221.66,-140.99 225.16,-150.99 228.66,-140.99 221.66,-140.99"/>
</g>
<!-- PrismaModule -->
<g id="node3" class="node">
<title>PrismaModule</title>
<polygon fill="#8dd3c7" stroke="black" points="122.43,-122 119.43,-126 98.43,-126 95.43,-122 23.57,-122 23.57,-86 122.43,-86 122.43,-122"/>
<text text-anchor="middle" x="73" y="-99.8" font-family="Times,serif" font-size="14.00">PrismaModule</text>
</g>
<!-- PrismaModule&#45;&gt;ClientPaymentModule -->
<g id="edge3" class="edge">
<title>PrismaModule&#45;&gt;ClientPaymentModule</title>
<path fill="none" stroke="black" d="M73,-122.11C73,-141.34 73,-169 73,-169 73,-169 208.65,-169 208.65,-169"/>
<polygon fill="black" stroke="black" points="208.65,-172.5 218.65,-169 208.65,-165.5 208.65,-172.5"/>
</g>
<!-- ClientPaymentRepository  -->
<g id="node5" class="node">
<title>ClientPaymentRepository </title>
<polygon fill="#fb8072" stroke="black" points="458.15,-252 293.85,-252 293.85,-216 458.15,-216 458.15,-252"/>
<text text-anchor="middle" x="376" y="-229.8" font-family="Times,serif" font-size="14.00">ClientPaymentRepository </text>
</g>
<!-- ClientPaymentModule&#45;&gt;ClientPaymentRepository  -->
<g id="edge4" class="edge">
<title>ClientPaymentModule&#45;&gt;ClientPaymentRepository </title>
<path fill="none" stroke="black" stroke-dasharray="5,2" d="M327.65,-187.11C327.65,-187.11 327.65,-205.99 327.65,-205.99"/>
<polygon fill="black" stroke="black" points="324.15,-205.99 327.65,-215.99 331.15,-205.99 324.15,-205.99"/>
</g>
<!-- ClientPaymentService  -->
<g id="node6" class="node">
<title>ClientPaymentService </title>
<polygon fill="#fb8072" stroke="black" points="276.19,-252 131.81,-252 131.81,-216 276.19,-216 276.19,-252"/>
<text text-anchor="middle" x="204" y="-229.8" font-family="Times,serif" font-size="14.00">ClientPaymentService </text>
</g>
<!-- ClientPaymentModule&#45;&gt;ClientPaymentService  -->
<g id="edge5" class="edge">
<title>ClientPaymentModule&#45;&gt;ClientPaymentService </title>
<path fill="none" stroke="black" stroke-dasharray="5,2" d="M247.48,-187.11C247.48,-187.11 247.48,-205.99 247.48,-205.99"/>
<polygon fill="black" stroke="black" points="243.98,-205.99 247.48,-215.99 250.98,-205.99 243.98,-205.99"/>
</g>
<!-- ClientPaymentRepository -->
<g id="node7" class="node">
<title>ClientPaymentRepository</title>
<ellipse fill="#fdb462" stroke="black" cx="677" cy="-104" rx="110.63" ry="18"/>
<text text-anchor="middle" x="677" y="-99.8" font-family="Times,serif" font-size="14.00">ClientPaymentRepository</text>
</g>
<!-- ClientPaymentRepository&#45;&gt;ClientPaymentModule -->
<g id="edge6" class="edge">
<title>ClientPaymentRepository&#45;&gt;ClientPaymentModule</title>
<path fill="none" stroke="black" d="M677,-122.11C677,-141.34 677,-169 677,-169 677,-169 371.43,-169 371.43,-169"/>
<polygon fill="black" stroke="black" points="371.43,-165.5 361.43,-169 371.43,-172.5 371.43,-165.5"/>
</g>
<!-- ClientPaymentService -->
<g id="node8" class="node">
<title>ClientPaymentService</title>
<ellipse fill="#fdb462" stroke="black" cx="451" cy="-104" rx="97.29" ry="18"/>
<text text-anchor="middle" x="451" y="-99.8" font-family="Times,serif" font-size="14.00">ClientPaymentService</text>
</g>
<!-- ClientPaymentService&#45;&gt;ClientPaymentModule -->
<g id="edge7" class="edge">
<title>ClientPaymentService&#45;&gt;ClientPaymentModule</title>
<path fill="none" stroke="black" d="M357.5,-109.1C357.5,-109.1 357.5,-140.74 357.5,-140.74"/>
<polygon fill="black" stroke="black" points="354,-140.74 357.5,-150.74 361,-140.74 354,-140.74"/>
</g>
</g>
</svg>
