<?xml version="1.0" encoding="UTF-8" standalone="no"?>
<!DOCTYPE svg PUBLIC "-//W3C//DTD SVG 1.1//EN"
 "http://www.w3.org/Graphics/SVG/1.1/DTD/svg11.dtd">
<!-- Generated by graphviz version 2.47.0 (20210316.0004)
 -->
<!-- Title: dependencies Pages: 1 -->
<svg width="809pt" height="284pt"
 viewBox="0.00 0.00 809.00 284.00" xmlns="http://www.w3.org/2000/svg" xmlns:xlink="http://www.w3.org/1999/xlink">
<g id="graph0" class="graph" transform="scale(1 1) rotate(0) translate(4 280)">
<title>dependencies</title>
<polygon fill="white" stroke="transparent" points="-4,4 -4,-280 805,-280 805,4 -4,4"/>
<text text-anchor="start" x="379.51" y="-42.4" font-family="Times-12" font-weight="bold" font-size="14.00">Legend</text>
<polygon fill="#ffffb3" stroke="transparent" points="166.5,-10 166.5,-30 186.5,-30 186.5,-10 166.5,-10"/>
<text text-anchor="start" x="190.13" y="-15.4" font-family="Times-12" font-size="14.00"> &#160;Declarations</text>
<polygon fill="#8dd3c7" stroke="transparent" points="279.5,-10 279.5,-30 299.5,-30 299.5,-10 279.5,-10"/>
<text text-anchor="start" x="303.23" y="-15.4" font-family="Times-12" font-size="14.00"> &#160;Module</text>
<polygon fill="#80b1d3" stroke="transparent" points="365.5,-10 365.5,-30 385.5,-30 385.5,-10 365.5,-10"/>
<text text-anchor="start" x="389.28" y="-15.4" font-family="Times-12" font-size="14.00"> &#160;Bootstrap</text>
<polygon fill="#fdb462" stroke="transparent" points="462.5,-10 462.5,-30 482.5,-30 482.5,-10 462.5,-10"/>
<text text-anchor="start" x="486.17" y="-15.4" font-family="Times-12" font-size="14.00"> &#160;Providers</text>
<polygon fill="#fb8072" stroke="transparent" points="558.5,-10 558.5,-30 578.5,-30 578.5,-10 558.5,-10"/>
<text text-anchor="start" x="582.23" y="-15.4" font-family="Times-12" font-size="14.00"> &#160;Exports</text>
<g id="clust1" class="cluster">
<title>cluster_StaffPaymentModule</title>
<polygon fill="none" stroke="black" stroke-dasharray="1,5" points="8,-70 8,-268 793,-268 793,-70 8,-70"/>
</g>
<g id="clust3" class="cluster">
<title>cluster_StaffPaymentModule_imports</title>
<polygon fill="none" stroke="black" points="456,-78 456,-130 785,-130 785,-78 456,-78"/>
</g>
<g id="clust6" class="cluster">
<title>cluster_StaffPaymentModule_providers</title>
<polygon fill="none" stroke="black" points="16,-78 16,-130 448,-130 448,-78 16,-78"/>
</g>
<g id="clust4" class="cluster">
<title>cluster_StaffPaymentModule_exports</title>
<polygon fill="none" stroke="black" points="348,-208 348,-260 677,-260 677,-208 348,-208"/>
</g>
<!-- ExcelModule -->
<g id="node1" class="node">
<title>ExcelModule</title>
<polygon fill="#8dd3c7" stroke="black" points="776.92,-122 773.92,-126 752.92,-126 749.92,-122 685.08,-122 685.08,-86 776.92,-86 776.92,-122"/>
<text text-anchor="middle" x="731" y="-99.8" font-family="Times,serif" font-size="14.00">ExcelModule</text>
</g>
<!-- StaffPaymentModule -->
<g id="node4" class="node">
<title>StaffPaymentModule</title>
<polygon fill="#8dd3c7" stroke="black" points="574.75,-187 571.75,-191 550.75,-191 547.75,-187 439.25,-187 439.25,-151 574.75,-151 574.75,-187"/>
<text text-anchor="middle" x="507" y="-164.8" font-family="Times,serif" font-size="14.00">StaffPaymentModule</text>
</g>
<!-- ExcelModule&#45;&gt;StaffPaymentModule -->
<g id="edge1" class="edge">
<title>ExcelModule&#45;&gt;StaffPaymentModule</title>
<path fill="none" stroke="black" d="M731,-122.11C731,-141.34 731,-169 731,-169 731,-169 584.82,-169 584.82,-169"/>
<polygon fill="black" stroke="black" points="584.82,-165.5 574.82,-169 584.82,-172.5 584.82,-165.5"/>
</g>
<!-- PrismaModule -->
<g id="node2" class="node">
<title>PrismaModule</title>
<polygon fill="#8dd3c7" stroke="black" points="667.43,-122 664.43,-126 643.43,-126 640.43,-122 568.57,-122 568.57,-86 667.43,-86 667.43,-122"/>
<text text-anchor="middle" x="618" y="-99.8" font-family="Times,serif" font-size="14.00">PrismaModule</text>
</g>
<!-- PrismaModule&#45;&gt;StaffPaymentModule -->
<g id="edge2" class="edge">
<title>PrismaModule&#45;&gt;StaffPaymentModule</title>
<path fill="none" stroke="black" d="M568.71,-104C563.23,-104 559.58,-104 559.58,-104 559.58,-104 559.58,-140.89 559.58,-140.89"/>
<polygon fill="black" stroke="black" points="556.08,-140.89 559.58,-150.89 563.08,-140.89 556.08,-140.89"/>
</g>
<!-- StaffModule -->
<g id="node3" class="node">
<title>StaffModule</title>
<polygon fill="#8dd3c7" stroke="black" points="550.26,-122 547.26,-126 526.26,-126 523.26,-122 463.74,-122 463.74,-86 550.26,-86 550.26,-122"/>
<text text-anchor="middle" x="507" y="-99.8" font-family="Times,serif" font-size="14.00">StaffModule</text>
</g>
<!-- StaffModule&#45;&gt;StaffPaymentModule -->
<g id="edge3" class="edge">
<title>StaffModule&#45;&gt;StaffPaymentModule</title>
<path fill="none" stroke="black" d="M507,-122.11C507,-122.11 507,-140.99 507,-140.99"/>
<polygon fill="black" stroke="black" points="503.5,-140.99 507,-150.99 510.5,-140.99 503.5,-140.99"/>
</g>
<!-- StaffPaymentRepository  -->
<g id="node5" class="node">
<title>StaffPaymentRepository </title>
<polygon fill="#fb8072" stroke="black" points="668.64,-252 511.36,-252 511.36,-216 668.64,-216 668.64,-252"/>
<text text-anchor="middle" x="590" y="-229.8" font-family="Times,serif" font-size="14.00">StaffPaymentRepository </text>
</g>
<!-- StaffPaymentModule&#45;&gt;StaffPaymentRepository  -->
<g id="edge4" class="edge">
<title>StaffPaymentModule&#45;&gt;StaffPaymentRepository </title>
<path fill="none" stroke="black" stroke-dasharray="5,2" d="M543.15,-187.11C543.15,-187.11 543.15,-205.99 543.15,-205.99"/>
<polygon fill="black" stroke="black" points="539.65,-205.99 543.15,-215.99 546.65,-205.99 539.65,-205.99"/>
</g>
<!-- StaffPaymentService  -->
<g id="node6" class="node">
<title>StaffPaymentService </title>
<polygon fill="#fb8072" stroke="black" points="493.68,-252 356.32,-252 356.32,-216 493.68,-216 493.68,-252"/>
<text text-anchor="middle" x="425" y="-229.8" font-family="Times,serif" font-size="14.00">StaffPaymentService </text>
</g>
<!-- StaffPaymentModule&#45;&gt;StaffPaymentService  -->
<g id="edge5" class="edge">
<title>StaffPaymentModule&#45;&gt;StaffPaymentService </title>
<path fill="none" stroke="black" stroke-dasharray="5,2" d="M466.48,-187.11C466.48,-187.11 466.48,-205.99 466.48,-205.99"/>
<polygon fill="black" stroke="black" points="462.98,-205.99 466.48,-215.99 469.98,-205.99 462.98,-205.99"/>
</g>
<!-- StaffPaymentRepository -->
<g id="node7" class="node">
<title>StaffPaymentRepository</title>
<ellipse fill="#fdb462" stroke="black" cx="334" cy="-104" rx="105.96" ry="18"/>
<text text-anchor="middle" x="334" y="-99.8" font-family="Times,serif" font-size="14.00">StaffPaymentRepository</text>
</g>
<!-- StaffPaymentRepository&#45;&gt;StaffPaymentModule -->
<g id="edge6" class="edge">
<title>StaffPaymentRepository&#45;&gt;StaffPaymentModule</title>
<path fill="none" stroke="black" d="M440.07,-104C447.31,-104 451.8,-104 451.8,-104 451.8,-104 451.8,-140.89 451.8,-140.89"/>
<polygon fill="black" stroke="black" points="448.3,-140.89 451.8,-150.89 455.3,-140.89 448.3,-140.89"/>
</g>
<!-- StaffPaymentService -->
<g id="node8" class="node">
<title>StaffPaymentService</title>
<ellipse fill="#fdb462" stroke="black" cx="117" cy="-104" rx="92.61" ry="18"/>
<text text-anchor="middle" x="117" y="-99.8" font-family="Times,serif" font-size="14.00">StaffPaymentService</text>
</g>
<!-- StaffPaymentService&#45;&gt;StaffPaymentModule -->
<g id="edge7" class="edge">
<title>StaffPaymentService&#45;&gt;StaffPaymentModule</title>
<path fill="none" stroke="black" d="M117,-122.11C117,-141.34 117,-169 117,-169 117,-169 429.07,-169 429.07,-169"/>
<polygon fill="black" stroke="black" points="429.07,-172.5 439.07,-169 429.07,-165.5 429.07,-172.5"/>
</g>
</g>
</svg>
