<?xml version="1.0" encoding="UTF-8" standalone="no"?>
<!DOCTYPE svg PUBLIC "-//W3C//DTD SVG 1.1//EN"
 "http://www.w3.org/Graphics/SVG/1.1/DTD/svg11.dtd">
<!-- Generated by graphviz version 2.47.0 (20210316.0004)
 -->
<!-- Title: dependencies Pages: 1 -->
<svg width="776pt" height="284pt"
 viewBox="0.00 0.00 776.00 284.00" xmlns="http://www.w3.org/2000/svg" xmlns:xlink="http://www.w3.org/1999/xlink">
<g id="graph0" class="graph" transform="scale(1 1) rotate(0) translate(4 280)">
<title>dependencies</title>
<polygon fill="white" stroke="transparent" points="-4,4 -4,-280 772,-280 772,4 -4,4"/>
<text text-anchor="start" x="363.01" y="-42.4" font-family="Times-12" font-weight="bold" font-size="14.00">Legend</text>
<polygon fill="#ffffb3" stroke="transparent" points="150,-10 150,-30 170,-30 170,-10 150,-10"/>
<text text-anchor="start" x="173.63" y="-15.4" font-family="Times-12" font-size="14.00"> &#160;Declarations</text>
<polygon fill="#8dd3c7" stroke="transparent" points="263,-10 263,-30 283,-30 283,-10 263,-10"/>
<text text-anchor="start" x="286.73" y="-15.4" font-family="Times-12" font-size="14.00"> &#160;Module</text>
<polygon fill="#80b1d3" stroke="transparent" points="349,-10 349,-30 369,-30 369,-10 349,-10"/>
<text text-anchor="start" x="372.78" y="-15.4" font-family="Times-12" font-size="14.00"> &#160;Bootstrap</text>
<polygon fill="#fdb462" stroke="transparent" points="446,-10 446,-30 466,-30 466,-10 446,-10"/>
<text text-anchor="start" x="469.67" y="-15.4" font-family="Times-12" font-size="14.00"> &#160;Providers</text>
<polygon fill="#fb8072" stroke="transparent" points="542,-10 542,-30 562,-30 562,-10 542,-10"/>
<text text-anchor="start" x="565.73" y="-15.4" font-family="Times-12" font-size="14.00"> &#160;Exports</text>
<g id="clust1" class="cluster">
<title>cluster_ProductMVModule</title>
<polygon fill="none" stroke="black" stroke-dasharray="1,5" points="8,-70 8,-268 760,-268 760,-70 8,-70"/>
</g>
<g id="clust3" class="cluster">
<title>cluster_ProductMVModule_imports</title>
<polygon fill="none" stroke="black" points="428,-78 428,-130 752,-130 752,-78 428,-78"/>
</g>
<g id="clust4" class="cluster">
<title>cluster_ProductMVModule_exports</title>
<polygon fill="none" stroke="black" points="336,-208 336,-260 645,-260 645,-208 336,-208"/>
</g>
<g id="clust6" class="cluster">
<title>cluster_ProductMVModule_providers</title>
<polygon fill="none" stroke="black" points="16,-78 16,-130 420,-130 420,-78 16,-78"/>
</g>
<!-- BotModule -->
<g id="node1" class="node">
<title>BotModule</title>
<polygon fill="#8dd3c7" stroke="black" points="743.78,-122 740.78,-126 719.78,-126 716.78,-122 664.22,-122 664.22,-86 743.78,-86 743.78,-122"/>
<text text-anchor="middle" x="704" y="-99.8" font-family="Times,serif" font-size="14.00">BotModule</text>
</g>
<!-- ProductMVModule -->
<g id="node4" class="node">
<title>ProductMVModule</title>
<polygon fill="#8dd3c7" stroke="black" points="547.65,-187 544.65,-191 523.65,-191 520.65,-187 422.35,-187 422.35,-151 547.65,-151 547.65,-187"/>
<text text-anchor="middle" x="485" y="-164.8" font-family="Times,serif" font-size="14.00">ProductMVModule</text>
</g>
<!-- BotModule&#45;&gt;ProductMVModule -->
<g id="edge1" class="edge">
<title>BotModule&#45;&gt;ProductMVModule</title>
<path fill="none" stroke="black" d="M704,-122.11C704,-141.34 704,-169 704,-169 704,-169 557.76,-169 557.76,-169"/>
<polygon fill="black" stroke="black" points="557.76,-165.5 547.76,-169 557.76,-172.5 557.76,-165.5"/>
</g>
<!-- ClientModule -->
<g id="node2" class="node">
<title>ClientModule</title>
<polygon fill="#8dd3c7" stroke="black" points="645.77,-122 642.77,-126 621.77,-126 618.77,-122 552.23,-122 552.23,-86 645.77,-86 645.77,-122"/>
<text text-anchor="middle" x="599" y="-99.8" font-family="Times,serif" font-size="14.00">ClientModule</text>
</g>
<!-- ClientModule&#45;&gt;ProductMVModule -->
<g id="edge2" class="edge">
<title>ClientModule&#45;&gt;ProductMVModule</title>
<path fill="none" stroke="black" d="M552.2,-104C545.61,-104 541.02,-104 541.02,-104 541.02,-104 541.02,-140.89 541.02,-140.89"/>
<polygon fill="black" stroke="black" points="537.52,-140.89 541.02,-150.89 544.52,-140.89 537.52,-140.89"/>
</g>
<!-- PrismaModule -->
<g id="node3" class="node">
<title>PrismaModule</title>
<polygon fill="#8dd3c7" stroke="black" points="534.43,-122 531.43,-126 510.43,-126 507.43,-122 435.57,-122 435.57,-86 534.43,-86 534.43,-122"/>
<text text-anchor="middle" x="485" y="-99.8" font-family="Times,serif" font-size="14.00">PrismaModule</text>
</g>
<!-- PrismaModule&#45;&gt;ProductMVModule -->
<g id="edge3" class="edge">
<title>PrismaModule&#45;&gt;ProductMVModule</title>
<path fill="none" stroke="black" d="M485,-122.11C485,-122.11 485,-140.99 485,-140.99"/>
<polygon fill="black" stroke="black" points="481.5,-140.99 485,-150.99 488.5,-140.99 481.5,-140.99"/>
</g>
<!-- ProductMVRepository  -->
<g id="node5" class="node">
<title>ProductMVRepository </title>
<polygon fill="#fb8072" stroke="black" points="636.54,-252 489.46,-252 489.46,-216 636.54,-216 636.54,-252"/>
<text text-anchor="middle" x="563" y="-229.8" font-family="Times,serif" font-size="14.00">ProductMVRepository </text>
</g>
<!-- ProductMVModule&#45;&gt;ProductMVRepository  -->
<g id="edge4" class="edge">
<title>ProductMVModule&#45;&gt;ProductMVRepository </title>
<path fill="none" stroke="black" stroke-dasharray="5,2" d="M518.65,-187.11C518.65,-187.11 518.65,-205.99 518.65,-205.99"/>
<polygon fill="black" stroke="black" points="515.15,-205.99 518.65,-215.99 522.15,-205.99 515.15,-205.99"/>
</g>
<!-- ProductMVService  -->
<g id="node6" class="node">
<title>ProductMVService </title>
<polygon fill="#fb8072" stroke="black" points="471.58,-252 344.42,-252 344.42,-216 471.58,-216 471.58,-252"/>
<text text-anchor="middle" x="408" y="-229.8" font-family="Times,serif" font-size="14.00">ProductMVService </text>
</g>
<!-- ProductMVModule&#45;&gt;ProductMVService  -->
<g id="edge5" class="edge">
<title>ProductMVModule&#45;&gt;ProductMVService </title>
<path fill="none" stroke="black" stroke-dasharray="5,2" d="M446.98,-187.11C446.98,-187.11 446.98,-205.99 446.98,-205.99"/>
<polygon fill="black" stroke="black" points="443.48,-205.99 446.98,-215.99 450.48,-205.99 443.48,-205.99"/>
</g>
<!-- ProductMVRepository -->
<g id="node7" class="node">
<title>ProductMVRepository</title>
<ellipse fill="#fdb462" stroke="black" cx="313" cy="-104" rx="99.02" ry="18"/>
<text text-anchor="middle" x="313" y="-99.8" font-family="Times,serif" font-size="14.00">ProductMVRepository</text>
</g>
<!-- ProductMVRepository&#45;&gt;ProductMVModule -->
<g id="edge6" class="edge">
<title>ProductMVRepository&#45;&gt;ProductMVModule</title>
<path fill="none" stroke="black" d="M412.36,-104C422.39,-104 428.98,-104 428.98,-104 428.98,-104 428.98,-140.89 428.98,-140.89"/>
<polygon fill="black" stroke="black" points="425.48,-140.89 428.98,-150.89 432.48,-140.89 425.48,-140.89"/>
</g>
<!-- ProductMVService -->
<g id="node8" class="node">
<title>ProductMVService</title>
<ellipse fill="#fdb462" stroke="black" cx="110" cy="-104" rx="85.67" ry="18"/>
<text text-anchor="middle" x="110" y="-99.8" font-family="Times,serif" font-size="14.00">ProductMVService</text>
</g>
<!-- ProductMVService&#45;&gt;ProductMVModule -->
<g id="edge7" class="edge">
<title>ProductMVService&#45;&gt;ProductMVModule</title>
<path fill="none" stroke="black" d="M110,-122.11C110,-141.34 110,-169 110,-169 110,-169 412.23,-169 412.23,-169"/>
<polygon fill="black" stroke="black" points="412.23,-172.5 422.23,-169 412.23,-165.5 412.23,-172.5"/>
</g>
</g>
</svg>
