<?xml version="1.0" encoding="UTF-8" standalone="no"?>
<!DOCTYPE svg PUBLIC "-//W3C//DTD SVG 1.1//EN"
 "http://www.w3.org/Graphics/SVG/1.1/DTD/svg11.dtd">
<!-- Generated by graphviz version 2.47.0 (20210316.0004)
 -->
<!-- Title: dependencies Pages: 1 -->
<svg width="504pt" height="284pt"
 viewBox="0.00 0.00 504.00 284.00" xmlns="http://www.w3.org/2000/svg" xmlns:xlink="http://www.w3.org/1999/xlink">
<g id="graph0" class="graph" transform="scale(1 1) rotate(0) translate(4 280)">
<title>dependencies</title>
<polygon fill="white" stroke="transparent" points="-4,4 -4,-280 500,-280 500,4 -4,4"/>
<text text-anchor="start" x="227.01" y="-42.4" font-family="Times-12" font-weight="bold" font-size="14.00">Legend</text>
<polygon fill="#ffffb3" stroke="transparent" points="14,-10 14,-30 34,-30 34,-10 14,-10"/>
<text text-anchor="start" x="37.63" y="-15.4" font-family="Times-12" font-size="14.00"> &#160;Declarations</text>
<polygon fill="#8dd3c7" stroke="transparent" points="127,-10 127,-30 147,-30 147,-10 127,-10"/>
<text text-anchor="start" x="150.73" y="-15.4" font-family="Times-12" font-size="14.00"> &#160;Module</text>
<polygon fill="#80b1d3" stroke="transparent" points="213,-10 213,-30 233,-30 233,-10 213,-10"/>
<text text-anchor="start" x="236.78" y="-15.4" font-family="Times-12" font-size="14.00"> &#160;Bootstrap</text>
<polygon fill="#fdb462" stroke="transparent" points="310,-10 310,-30 330,-30 330,-10 310,-10"/>
<text text-anchor="start" x="333.67" y="-15.4" font-family="Times-12" font-size="14.00"> &#160;Providers</text>
<polygon fill="#fb8072" stroke="transparent" points="406,-10 406,-30 426,-30 426,-10 406,-10"/>
<text text-anchor="start" x="429.73" y="-15.4" font-family="Times-12" font-size="14.00"> &#160;Exports</text>
<g id="clust1" class="cluster">
<title>cluster_ProductModule</title>
<polygon fill="none" stroke="black" stroke-dasharray="1,5" points="9,-70 9,-268 487,-268 487,-70 9,-70"/>
</g>
<g id="clust3" class="cluster">
<title>cluster_ProductModule_imports</title>
<polygon fill="none" stroke="black" points="365,-78 365,-130 479,-130 479,-78 365,-78"/>
</g>
<g id="clust6" class="cluster">
<title>cluster_ProductModule_providers</title>
<polygon fill="none" stroke="black" points="17,-78 17,-130 357,-130 357,-78 17,-78"/>
</g>
<g id="clust4" class="cluster">
<title>cluster_ProductModule_exports</title>
<polygon fill="none" stroke="black" points="139,-208 139,-260 403,-260 403,-208 139,-208"/>
</g>
<!-- PrismaModule -->
<g id="node1" class="node">
<title>PrismaModule</title>
<polygon fill="#8dd3c7" stroke="black" points="471.43,-122 468.43,-126 447.43,-126 444.43,-122 372.57,-122 372.57,-86 471.43,-86 471.43,-122"/>
<text text-anchor="middle" x="422" y="-99.8" font-family="Times,serif" font-size="14.00">PrismaModule</text>
</g>
<!-- ProductModule -->
<g id="node2" class="node">
<title>ProductModule</title>
<polygon fill="#8dd3c7" stroke="black" points="317.6,-187 314.6,-191 293.6,-191 290.6,-187 214.4,-187 214.4,-151 317.6,-151 317.6,-187"/>
<text text-anchor="middle" x="266" y="-164.8" font-family="Times,serif" font-size="14.00">ProductModule</text>
</g>
<!-- PrismaModule&#45;&gt;ProductModule -->
<g id="edge1" class="edge">
<title>PrismaModule&#45;&gt;ProductModule</title>
<path fill="none" stroke="black" d="M384.01,-122.11C384.01,-141.34 384.01,-169 384.01,-169 384.01,-169 327.76,-169 327.76,-169"/>
<polygon fill="black" stroke="black" points="327.76,-165.5 317.76,-169 327.76,-172.5 327.76,-165.5"/>
</g>
<!-- ProductRepository  -->
<g id="node3" class="node">
<title>ProductRepository </title>
<polygon fill="#fb8072" stroke="black" points="395.49,-252 270.51,-252 270.51,-216 395.49,-216 395.49,-252"/>
<text text-anchor="middle" x="333" y="-229.8" font-family="Times,serif" font-size="14.00">ProductRepository </text>
</g>
<!-- ProductModule&#45;&gt;ProductRepository  -->
<g id="edge2" class="edge">
<title>ProductModule&#45;&gt;ProductRepository </title>
<path fill="none" stroke="black" stroke-dasharray="5,2" d="M294.15,-187.11C294.15,-187.11 294.15,-205.99 294.15,-205.99"/>
<polygon fill="black" stroke="black" points="290.65,-205.99 294.15,-215.99 297.65,-205.99 290.65,-205.99"/>
</g>
<!-- ProductService  -->
<g id="node4" class="node">
<title>ProductService </title>
<polygon fill="#fb8072" stroke="black" points="252.53,-252 147.47,-252 147.47,-216 252.53,-216 252.53,-252"/>
<text text-anchor="middle" x="200" y="-229.8" font-family="Times,serif" font-size="14.00">ProductService </text>
</g>
<!-- ProductModule&#45;&gt;ProductService  -->
<g id="edge3" class="edge">
<title>ProductModule&#45;&gt;ProductService </title>
<path fill="none" stroke="black" stroke-dasharray="5,2" d="M233.48,-187.11C233.48,-187.11 233.48,-205.99 233.48,-205.99"/>
<polygon fill="black" stroke="black" points="229.98,-205.99 233.48,-215.99 236.98,-205.99 229.98,-205.99"/>
</g>
<!-- ProductRepository -->
<g id="node5" class="node">
<title>ProductRepository</title>
<ellipse fill="#fdb462" stroke="black" cx="266" cy="-104" rx="83.41" ry="18"/>
<text text-anchor="middle" x="266" y="-99.8" font-family="Times,serif" font-size="14.00">ProductRepository</text>
</g>
<!-- ProductRepository&#45;&gt;ProductModule -->
<g id="edge4" class="edge">
<title>ProductRepository&#45;&gt;ProductModule</title>
<path fill="none" stroke="black" d="M266,-122.11C266,-122.11 266,-140.99 266,-140.99"/>
<polygon fill="black" stroke="black" points="262.5,-140.99 266,-150.99 269.5,-140.99 262.5,-140.99"/>
</g>
<!-- ProductService -->
<g id="node6" class="node">
<title>ProductService</title>
<ellipse fill="#fdb462" stroke="black" cx="95" cy="-104" rx="70.06" ry="18"/>
<text text-anchor="middle" x="95" y="-99.8" font-family="Times,serif" font-size="14.00">ProductService</text>
</g>
<!-- ProductService&#45;&gt;ProductModule -->
<g id="edge5" class="edge">
<title>ProductService&#45;&gt;ProductModule</title>
<path fill="none" stroke="black" d="M156.26,-112.77C156.26,-130.51 156.26,-169 156.26,-169 156.26,-169 204.34,-169 204.34,-169"/>
<polygon fill="black" stroke="black" points="204.34,-172.5 214.34,-169 204.34,-165.5 204.34,-172.5"/>
</g>
</g>
</svg>
