<?xml version="1.0" encoding="UTF-8" standalone="no"?>
<!DOCTYPE svg PUBLIC "-//W3C//DTD SVG 1.1//EN"
 "http://www.w3.org/Graphics/SVG/1.1/DTD/svg11.dtd">
<!-- Generated by graphviz version 2.47.0 (20210316.0004)
 -->
<!-- Title: dependencies Pages: 1 -->
<svg width="750pt" height="284pt"
 viewBox="0.00 0.00 750.00 284.00" xmlns="http://www.w3.org/2000/svg" xmlns:xlink="http://www.w3.org/1999/xlink">
<g id="graph0" class="graph" transform="scale(1 1) rotate(0) translate(4 280)">
<title>dependencies</title>
<polygon fill="white" stroke="transparent" points="-4,4 -4,-280 746,-280 746,4 -4,4"/>
<text text-anchor="start" x="350.01" y="-42.4" font-family="Times-12" font-weight="bold" font-size="14.00">Legend</text>
<polygon fill="#ffffb3" stroke="transparent" points="137,-10 137,-30 157,-30 157,-10 137,-10"/>
<text text-anchor="start" x="160.63" y="-15.4" font-family="Times-12" font-size="14.00"> &#160;Declarations</text>
<polygon fill="#8dd3c7" stroke="transparent" points="250,-10 250,-30 270,-30 270,-10 250,-10"/>
<text text-anchor="start" x="273.73" y="-15.4" font-family="Times-12" font-size="14.00"> &#160;Module</text>
<polygon fill="#80b1d3" stroke="transparent" points="336,-10 336,-30 356,-30 356,-10 336,-10"/>
<text text-anchor="start" x="359.78" y="-15.4" font-family="Times-12" font-size="14.00"> &#160;Bootstrap</text>
<polygon fill="#fdb462" stroke="transparent" points="433,-10 433,-30 453,-30 453,-10 433,-10"/>
<text text-anchor="start" x="456.67" y="-15.4" font-family="Times-12" font-size="14.00"> &#160;Providers</text>
<polygon fill="#fb8072" stroke="transparent" points="529,-10 529,-30 549,-30 549,-10 529,-10"/>
<text text-anchor="start" x="552.73" y="-15.4" font-family="Times-12" font-size="14.00"> &#160;Exports</text>
<g id="clust1" class="cluster">
<title>cluster_SyncronizeModule</title>
<polygon fill="none" stroke="black" stroke-dasharray="1,5" points="8,-70 8,-268 734,-268 734,-70 8,-70"/>
</g>
<g id="clust4" class="cluster">
<title>cluster_SyncronizeModule_exports</title>
<polygon fill="none" stroke="black" points="178,-208 178,-260 630,-260 630,-208 178,-208"/>
</g>
<g id="clust3" class="cluster">
<title>cluster_SyncronizeModule_imports</title>
<polygon fill="none" stroke="black" points="612,-78 612,-130 726,-130 726,-78 612,-78"/>
</g>
<g id="clust6" class="cluster">
<title>cluster_SyncronizeModule_providers</title>
<polygon fill="none" stroke="black" points="16,-78 16,-130 604,-130 604,-78 16,-78"/>
</g>
<!-- PrismaModule -->
<g id="node1" class="node">
<title>PrismaModule</title>
<polygon fill="#8dd3c7" stroke="black" points="718.43,-122 715.43,-126 694.43,-126 691.43,-122 619.57,-122 619.57,-86 718.43,-86 718.43,-122"/>
<text text-anchor="middle" x="669" y="-99.8" font-family="Times,serif" font-size="14.00">PrismaModule</text>
</g>
<!-- SyncronizeModule -->
<g id="node2" class="node">
<title>SyncronizeModule</title>
<polygon fill="#8dd3c7" stroke="black" points="461.03,-187 458.03,-191 437.03,-191 434.03,-187 338.97,-187 338.97,-151 461.03,-151 461.03,-187"/>
<text text-anchor="middle" x="400" y="-164.8" font-family="Times,serif" font-size="14.00">SyncronizeModule</text>
</g>
<!-- PrismaModule&#45;&gt;SyncronizeModule -->
<g id="edge1" class="edge">
<title>PrismaModule&#45;&gt;SyncronizeModule</title>
<path fill="none" stroke="black" d="M669.97,-122.02C669.97,-139.37 669.97,-163 669.97,-163 669.97,-163 471.26,-163 471.26,-163"/>
<polygon fill="black" stroke="black" points="471.26,-159.5 461.26,-163 471.26,-166.5 471.26,-159.5"/>
</g>
<!-- Syncronize2Service  -->
<g id="node3" class="node">
<title>Syncronize2Service </title>
<polygon fill="#fb8072" stroke="black" points="621.96,-252 490.04,-252 490.04,-216 621.96,-216 621.96,-252"/>
<text text-anchor="middle" x="556" y="-229.8" font-family="Times,serif" font-size="14.00">Syncronize2Service </text>
</g>
<!-- SyncronizeModule&#45;&gt;Syncronize2Service  -->
<g id="edge2" class="edge">
<title>SyncronizeModule&#45;&gt;Syncronize2Service </title>
<path fill="none" stroke="black" stroke-dasharray="5,2" d="M461.17,-175C500.11,-175 543.27,-175 543.27,-175 543.27,-175 543.27,-205.98 543.27,-205.98"/>
<polygon fill="black" stroke="black" points="539.77,-205.98 543.27,-215.98 546.77,-205.98 539.77,-205.98"/>
</g>
<!-- SyncronizeRepository  -->
<g id="node4" class="node">
<title>SyncronizeRepository </title>
<polygon fill="#fb8072" stroke="black" points="471.92,-252 328.08,-252 328.08,-216 471.92,-216 471.92,-252"/>
<text text-anchor="middle" x="400" y="-229.8" font-family="Times,serif" font-size="14.00">SyncronizeRepository </text>
</g>
<!-- SyncronizeModule&#45;&gt;SyncronizeRepository  -->
<g id="edge3" class="edge">
<title>SyncronizeModule&#45;&gt;SyncronizeRepository </title>
<path fill="none" stroke="black" stroke-dasharray="5,2" d="M400,-187.11C400,-187.11 400,-205.99 400,-205.99"/>
<polygon fill="black" stroke="black" points="396.5,-205.99 400,-215.99 403.5,-205.99 396.5,-205.99"/>
</g>
<!-- SyncronizeService  -->
<g id="node5" class="node">
<title>SyncronizeService </title>
<polygon fill="#fb8072" stroke="black" points="310.46,-252 185.54,-252 185.54,-216 310.46,-216 310.46,-252"/>
<text text-anchor="middle" x="248" y="-229.8" font-family="Times,serif" font-size="14.00">SyncronizeService </text>
</g>
<!-- SyncronizeModule&#45;&gt;SyncronizeService  -->
<g id="edge4" class="edge">
<title>SyncronizeModule&#45;&gt;SyncronizeService </title>
<path fill="none" stroke="black" stroke-dasharray="5,2" d="M338.65,-175C300.7,-175 259.19,-175 259.19,-175 259.19,-175 259.19,-205.98 259.19,-205.98"/>
<polygon fill="black" stroke="black" points="255.69,-205.98 259.19,-215.98 262.69,-205.98 255.69,-205.98"/>
</g>
<!-- Syncronize2Service -->
<g id="node6" class="node">
<title>Syncronize2Service</title>
<ellipse fill="#fdb462" stroke="black" cx="508" cy="-104" rx="88.02" ry="18"/>
<text text-anchor="middle" x="508" y="-99.8" font-family="Times,serif" font-size="14.00">Syncronize2Service</text>
</g>
<!-- Syncronize2Service&#45;&gt;SyncronizeModule -->
<g id="edge5" class="edge">
<title>Syncronize2Service&#45;&gt;SyncronizeModule</title>
<path fill="none" stroke="black" d="M440.5,-115.62C440.5,-115.62 440.5,-140.85 440.5,-140.85"/>
<polygon fill="black" stroke="black" points="437,-140.85 440.5,-150.85 444,-140.85 437,-140.85"/>
</g>
<!-- SyncronizeRepository -->
<g id="node7" class="node">
<title>SyncronizeRepository</title>
<ellipse fill="#fdb462" stroke="black" cx="305" cy="-104" rx="96.71" ry="18"/>
<text text-anchor="middle" x="305" y="-99.8" font-family="Times,serif" font-size="14.00">SyncronizeRepository</text>
</g>
<!-- SyncronizeRepository&#45;&gt;SyncronizeModule -->
<g id="edge6" class="edge">
<title>SyncronizeRepository&#45;&gt;SyncronizeModule</title>
<path fill="none" stroke="black" d="M370.3,-117.47C370.3,-117.47 370.3,-140.86 370.3,-140.86"/>
<polygon fill="black" stroke="black" points="366.8,-140.86 370.3,-150.86 373.8,-140.86 366.8,-140.86"/>
</g>
<!-- SyncronizeService -->
<g id="node8" class="node">
<title>SyncronizeService</title>
<ellipse fill="#fdb462" stroke="black" cx="107" cy="-104" rx="83.37" ry="18"/>
<text text-anchor="middle" x="107" y="-99.8" font-family="Times,serif" font-size="14.00">SyncronizeService</text>
</g>
<!-- SyncronizeService&#45;&gt;SyncronizeModule -->
<g id="edge7" class="edge">
<title>SyncronizeService&#45;&gt;SyncronizeModule</title>
<path fill="none" stroke="black" d="M104.67,-122.02C104.67,-139.37 104.67,-163 104.67,-163 104.67,-163 328.81,-163 328.81,-163"/>
<polygon fill="black" stroke="black" points="328.81,-166.5 338.81,-163 328.81,-159.5 328.81,-166.5"/>
</g>
</g>
</svg>
